<?xml version="1.0" encoding="UTF-8" standalone="no"?>
<svg
   xmlns:dc="http://purl.org/dc/elements/1.1/"
   xmlns:cc="http://creativecommons.org/ns#"
   xmlns:rdf="http://www.w3.org/1999/02/22-rdf-syntax-ns#"
   xmlns:svg="http://www.w3.org/2000/svg"
   xmlns="http://www.w3.org/2000/svg"
   xmlns:sodipodi="http://sodipodi.sourceforge.net/DTD/sodipodi-0.dtd"
   xmlns:inkscape="http://www.inkscape.org/namespaces/inkscape"
   inkscape:version="1.0 (4035a4fb49, 2020-05-01)"
   sodipodi:docname="HUIYE2.svg"
   viewBox="0 0 2209.3333 3314.6667"
   height="3314.6667"
   width="2209.3333"
   id="svg68"
   version="1.1">
  <metadata
     id="metadata74">
    <rdf:RDF>
      <cc:Work
         rdf:about="">
        <dc:format>image/svg+xml</dc:format>
        <dc:type
           rdf:resource="http://purl.org/dc/dcmitype/StillImage" />
        <dc:title></dc:title>
      </cc:Work>
    </rdf:RDF>
  </metadata>
  <defs
     id="defs72" />
  <sodipodi:namedview
     inkscape:current-layer="g76"
     inkscape:window-maximized="0"
     inkscape:window-y="29"
     inkscape:window-x="421"
     inkscape:cy="1657.3334"
     inkscape:cx="1104.6666"
     inkscape:zoom="0.25553097"
     showgrid="false"
     id="namedview70"
     inkscape:window-height="1033"
     inkscape:window-width="1413"
     inkscape:pageshadow="2"
     inkscape:pageopacity="0"
     guidetolerance="10"
     gridtolerance="10"
     objecttolerance="10"
     borderopacity="1"
     bordercolor="#666666"
     pagecolor="#ffffff" />
  <g
     id="g76"
     inkscape:label="Image"
     inkscape:groupmode="layer">
    <path
       id="path80"
       d="m 1176,80.000001 v 1.333333 l 49.3333,19.999996 C 1217.8573,88.738668 1189.9506,80.287467 1176,80.000001 m -65.3334,1.333333 1.3334,1.333333 -1.3334,-1.333333 m -22.6666,4 v 1.333334 L 1101.3333,84.000001 1088,85.333334 m 70.2226,-2.222266 0.888,0.444533 -0.888,-0.444533 m -80.8893,4.888933 v 1.333333 l 9.3334,-4 -9.3334,2.666667 M 1156,85.333334 l -21.3334,9.333334 v 1.333333 c 6.232,-0.804667 21.5347,-2.354133 21.3334,-10.666667 m -37.3334,1.333334 4,10.666666 c 1.392,-5.235733 0.6654,-7.8044 -4,-10.666666 m -43.9999,2.666666 1.3333,1.333334 -1.3333,-1.333334 m -44,18.666666 c 10.848,12.41987 31.3626,-6.542 40,-15.999999 -17.1574,0.890267 -23.3747,19.741599 -40,15.999999 M 1128,94.666668 1129.3333,96.000001 1128,94.666668 m 121.3333,8.000002 V 104 c 6.0027,2.8004 19.3533,22.53413 24,16 -9.012,-4.82547 -12.4987,-17.75067 -24,-17.33333 m -5.3333,0 V 104 h 4 l -4,-1.33333 m -304.00001,38.66666 c -4.63734,-10.91866 -14.26267,-2.90666 -21.33334,1.80667 -15.24266,10.16 -33.692,24.43334 -37.33333,43.52667 h 1.33333 c 11.13067,-19.972 31.54534,-40.02267 53.33334,-48 2.86666,9.35066 10.424,3.59066 15.99866,-0.49867 23.42534,-17.18627 41.75334,-28.83467 72.00135,-28.83467 l -1.3333,-4 -49.33205,11.23574 -33.33466,24.76426 m 285.33331,-36 9.3333,2.66667 v -1.33333 l -9.3333,-1.33334 m 32,0 -1.3333,1.33334 1.3333,-1.33334 M 1276,118.66667 c 4.0226,5.2848 11.5973,3.35773 16.9333,7.20373 10.8067,7.7896 17.2907,26.66427 31.0667,28.79627 -12.0307,-17.28134 -25.5774,-35.8144 -48,-36 M 1264,140 v 2.66667 L 1266.6666,140 H 1264 m -218.6667,13.33333 c -7.092,7.324 -22.292,7.712 -32,9.9 C 994.02932,167.584 976.30132,180.57734 957.33332,184 l -4,-10.66666 h -1.33333 c 0.808,3.32533 3.324,8.384 2.05466,11.768 -2.116,5.64266 -24.18533,16.996 -30.05466,17.51333 C 913.64265,203.52934 890.21199,193.464 881.33332,188 h -1.33333 c -9.37067,4.59867 -24.148,1.22667 -34.66667,2.01334 -33.35733,2.49466 -71.13733,2.73333 -101.33333,19.36666 -19.96267,10.99734 -16.64133,28.468 -19.43867,47.95334 -5.36,37.32666 -2.064,72.19866 10.21067,108 5.18,15.10933 18.97333,31.488 21.228,46.66666 8.86,2.604 1.70533,11.34267 0.50533,17.33334 -2.05733,10.268 -5.36933,18.07066 -7.972,28 -2.02533,7.73333 -0.81466,15.97866 -9.86666,18.66666 v 1.33334 c 7.324,4.49333 4.71066,11.256 4.11466,18.66666 -1.37866,17.13601 -7.77866,33.84134 -8.88666,50.66667 -3.484,52.924 -0.18667,105.95334 4.99866,158.66667 1.68,17.088 7.716,33.64 9.10667,50.66667 -9.5,0 -18.71067,0.003 -28,2.32666 -4.18,1.04667 -10.12933,3.96667 -14.29467,1.584 -4.54666,-2.6 -4.97066,-10.14933 -6.71733,-14.57733 -4.19467,-10.632 -9.928,-23.696 -20.32133,-29.33333 l 14.66666,32 c 6.236,29.82933 16.96534,52.05866 5.24667,82.66667 -4.27333,11.164 -12.68133,19.868 -17.24667,30.66666 30.52,-15.33066 32.644,-64.88667 24,-93.33333 9.93867,-2.73467 33.96934,-16.19467 43.068,-7.24267 9.008,8.86267 5.90934,26.68933 16.932,33.90933 l -9.33333,-33.33333 c 39.66,22.89867 53.188,77.948 40.10133,120 -9.44267,30.34134 -51.93466,49.02534 -80.10133,31.84134 -19.236,-11.736 -29.248,-30.10667 -41.33333,-47.84134 l 4,-1.33333 v -1.33333 c -20.64,5.412 -53.932,8.11866 -73.33334,-3.10534 -13.88266,-8.03333 -23.98666,-22.93066 -37.33333,-30.228 l 4,10.66667 -5.33333,1.33333 v 1.33334 c 12.316,-0.87734 25.90933,14.224 37.33333,19.52 19.84,9.19866 47.42933,11.17066 68,4.48 3.852,29.65333 36.42933,51.276 62.66667,58.66666 l -5.33334,5.33334 5.33334,-1.33334 -18.66667,36 h 1.33333 c 11.97734,-28.76133 35.128,-27.01733 60,-16.37333 26.94133,11.528 51.90533,28.69067 49.20933,61.70669 -2.52533,30.9173 -41.62133,37.2133 -65.20933,42.2146 -7.508,1.592 -16.456,5.2974 -24,5.5534 -9.204,0.312 -18.44933,-6.6334 -28,-4.2307 -6.07866,1.5293 -11.92933,7.0373 -17.33333,10.1733 -15.09733,8.7627 -29.68533,18.3134 -45.33333,26.1294 -16.59734,8.2893 -35.024,8.4666 -52,14.8266 8.384,15.376 -9.17067,18.0494 -16.008,27.0187 -12.552,16.464 -15.68667,45.456 -21.78,64.9813 -1.60534,5.144 -7.18133,16.9467 -3.54534,21.3334 l -2.66666,6.6666 -4,5.3334 c -10.16533,1.2986 -21.33333,12.4946 -30.66667,17.412 -18.708,9.8533 -38.856,17.2853 -60,19.7133 -35.816,4.1133 -70.53066,-25.5667 -101.33333,-38.4587 v 1.3334 c 26.176,22.8093 61.696,41.132 97.33333,42.6666 -8.82266,26.0814 -19.672,52.32 -22.43866,80 -3.12267,31.2267 2.80666,64.4134 -7.36934,94.6667 -8.272,24.6 -26.45866,37.84 -39.52533,58.6667 46.99333,-17.8134 47.388,-82.3734 50.46,-123.0534 0.79867,-10.56 -2.788,-25.72 2.272,-35.4533 3.80267,-7.2933 17.972,-10.1067 24.60133,-14.8267 2.63867,10.1734 6.32667,30.12 16.43867,35.7067 6.84933,3.7867 15.26667,-4.4933 21.824,-0.88 4.41733,2.44 4.38,10.2133 5.73733,14.5067 -4.65866,0.3733 -13.03066,0.2666 -15.96133,4.5733 -3.096,4.56 -0.06,12.08 1.296,16.76 4.356,15.0267 9.29467,27.04 19.99867,38.6667 l -5.33334,1.3333 1.33334,30.6667 c -20.52934,3.6533 -39.708,17.84 -58.66667,26.0133 -30.66667,13.24 -62.88133,23.6133 -94.66667,33.5333 -17.64533,5.5067 -40.29866,19.7334 -58.54666,11.64 -14.43467,-6.4133 -25.30533,-33.3333 -31.236,-47.1866 -4.23867,-9.8934 -11.592,-19.88 -12.884,-30.6667 l -4,-1.3333 L 248,1464 v -1.3333 c -9.57867,-14.4534 -10.66534,-39.04 -10.66667,-56 H 236 c -4.40667,20 2.852,43.84 9.41733,62.6666 5.05733,14.5067 11.18,27.9334 18.83067,41.3334 5.69066,9.9733 8.52933,24.2933 17.36933,31.9866 18.716,16.28 31.088,7.3867 51.716,2.6934 29.14266,-6.6134 58.216,-15.9734 85.33333,-28.6267 12.28267,-5.7333 32.90533,-20.2533 46.66667,-19.7733 15.61466,0.5466 8.90933,23.1066 13.38533,32 4.424,8.8 14.58667,23.52 25.28133,24.1866 5.93334,0.3734 10.41067,-3.8266 16,-4.0666 6.35734,-0.2667 10.46,5.72 17.33334,3.28 7.904,-2.8134 14.612,-10.7334 21.33333,-15.6 15.38666,-11.16 34.21333,-22.4 47.56133,-35.8534 7.20533,-7.2666 7.01733,-21.2666 17.792,-25.2133 8.96133,-3.2933 23.804,3.5467 33.31333,4.2 9.94934,0.68 25.87467,-3.4933 33.33334,4.12 l 25.21466,-0.16 38.78534,-9.2267 46.66666,-22.6133 0.61067,15.9333 12.72266,16.0667 c -22.74,0.08 -8.89066,20.9733 -1.33333,32 h 1.33333 c -1.864,-4.96 -15.572,-25.3333 -6.416,-28.1467 7.316,-2.24 15.04534,4.5734 22.416,4.1467 l -13.33333,-5.3333 -4,-16 -4,1.3333 c -5.33467,-21.48 -6.40267,-42.4533 -13.55333,-64 -1.812,-5.4667 -7.07334,-18.2533 -2.476,-23.4267 2.86533,-3.2133 9.48266,-2.04 13.36266,-2.2666 13.03734,-0.7467 24.42,0.053 37.33334,1.6933 l -7.61867,50.6667 -3.28133,22.4266 -14.43334,10.9067 16,-5.3333 c -6.80933,28.6 0.73734,60.44 1.33334,89.3333 -13.44,-9.4667 -15.58534,-19.9733 -20,-34.6667 -10.15067,18.8667 15.68666,33.5067 21.85333,48.12 3.44,8.1467 2.268,17.9467 3.97467,26.5467 4.03333,20.3333 10.46,39.84 14.824,60 2.45466,11.3334 1.41333,23.6134 4.68133,34.6667 -18.22667,-1.5867 -36.50267,-9.52 -54.66667,-12.72 -26.036,-4.56 -51.24799,-4.52 -77.33333,-10.4133 -17.47733,-3.9467 -44.57866,-9.1601 -57.54666,7.3866 -6.40534,8.16 -6.336,20.4934 -6.45867,30.4134 -0.23067,18.8266 1.19333,37.2133 1.33867,56 -17.05334,0 -34.012,-4.76 -50.66667,-8.12 -6.56933,-1.32 -14.31733,-5.68 -20.9,-2.4267 -17.948,8.8667 -35.44267,31.2267 -45.49466,47.88 -4.528,7.5067 -6.86534,17.2267 -12.792,23.7467 -8.90134,9.7866 -26.93734,7.48 -37.91467,15.1733 -11.66533,8.1733 -16.444,23.4533 -27.14533,32.32 -11.984,9.9333 -34.51867,13.5867 -49.08667,18.8 -3.49333,1.2533 -9.54667,2.6533 -11.076,6.52 -2.26933,5.72 0.30133,17.56 -10.20533,17.72 -2.67867,0.04 -5.52,-2.76 -8.052,-3.6133 l 4,8 c -24.57334,12.16 -66.708,1.2933 -89.33867,22.52 -4.072,3.8133 -3.56,9.8 -4.66533,14.8266 -2.58267,11.76 -5.788,23.0667 -9.00267,34.6534 -1.59066,5.7333 -2.124,13.48 -7.94533,16.6666 -12.67067,6.9334 -23.17467,-1.0933 -35.76667,-1.9333 -15.024,-0.9867 -30.428,10.84 -42.46,18.6 -5.072,3.2667 -11.24,6.2133 -13.69733,12.12 -2.72667,6.5733 -2.71333,15.5067 -4.17067,22.5467 -3.49066,16.84 -9.392,38.7733 -7.12933,56 1.66667,12.68 16.368,40.0133 9.372,51.88 -13.476,22.84 -41.132,10.2933 -60.3904,18.8 -5.60693,2.48 -10.34653,9.5466 -14.8108,13.7333 -6.3184,5.92 -14.92613,12.24 -19.253065,19.8267 -12.771733,22.44 -2.961333,46.0133 -2.075066,69.0933 h 2.666666 c 0.401067,8.32 7.395335,12.52 9.876535,20 1.9472,5.8667 0.30987,17.8667 -0.84773,23.9733 -1.4408,7.6134 -10.006138,7.04 -12.671871,13.5334 -4.864134,11.8666 -5.404134,33.7466 -4.1296,46.4933 2.830266,28.3067 18.903331,53 23.772661,80 -14.36919,3.1067 -14.666662,13.7733 -14.666662,26.6667 0,19.8133 4.962932,47.5333 17.956802,63.2666 6.02893,7.2934 16.17386,7.5467 22.53253,13.48 16.43733,15.36 24.748,49.04 51.51067,50.8534 9.70533,0.6533 19.85466,-6.2 27.18,-11.84 4.50266,-3.48 8.68933,-9.4534 15.20666,-6.9734 5.656,2.16 6.88934,8.8134 8.91734,13.7067 5.12266,12.3733 7.16666,22.3333 -8.63734,29.5067 -1.06933,7.9866 -10.74266,12.5866 -10.156,20.0533 0.97867,12.4267 4.76267,31.24 15.61334,38.8533 17.488,12.28 39.196,3.8134 52.31733,25.1467 14.36267,23.3467 3.71733,47.0667 13.06933,70.6133 3.54134,8.9067 11.91334,13.4667 18.86934,19.44 12.24133,10.5067 27.34933,16.76 40.93333,25.1734 12.872,7.9733 25.68,19.12 41.35333,20.72 3.78267,-8.1067 11.888,-16.2134 20,-20 1.62267,18.6133 18.516,62.3333 41.33333,62.24 12.37334,-0.053 22.08534,-14.24 34.66667,-16.0534 10.956,-1.5733 22.392,4.8134 33.33333,1.8134 7.96,22.7733 37.504,25.7866 52.9,42.7866 5.364,5.92 11.85333,20.4 20.48533,21.5734 10.7,1.44 22.90934,-10.4934 31.948,-14.9067 5.77067,-2.8133 12.57334,-2.2 18.66667,-4.12 l 3.30267,16 38.99333,29.3867 16.184,38.6133 30.85333,66.6667 h 1.33334 l -18.10134,-44 -27.232,-57.3334 c 31.944,25.76 63.21467,65.68 108,69.3334 v -2.6667 c -37.93733,-8.6 -73.71733,-41.24 -100,-68 15.316,3.5067 39.144,11.4933 54.64667,7.1867 9.128,-2.5467 6.092,-10.8667 12.424,-15.4667 4.508,-3.28 15.37333,0.1467 20.92933,0.28 V 2988 c 14.08933,9.6134 28.07867,20.1867 45.33333,23.4934 22.45067,4.3066 58.20534,-10.3334 74.08934,-26 4.13333,-4.0667 2.74266,-11.28 7.648,-14.6134 4.52933,-3.0666 11.716,-2.8666 16.92933,-4.0666 10.996,-2.52 23.684,-9.3334 34.66667,-9.48 V 2940 c 12.93866,5.76 7.32666,16.9734 4.18666,28 -7.14133,25.08 -25.92666,42.12 -34.85333,65.3334 17.98133,-11.48 34.15733,-36.1334 37.33333,-57.3334 l 4,2.6667 1.33334,-33.3333 c 16.40931,2.8266 32.72401,8.16 49.33331,11.08 5.928,1.0533 15.0027,5.5733 20.9107,2.7733 8.004,-3.7867 2.2267,-18.16 5.8453,-23.9467 4.5414,-7.2533 36.1107,-10.0933 43.9107,-8.5733 l -15.1667,80 L 1062.6667,3224 h 1.3333 1.3333 L 1080.952,3149.3334 1105.3333,2964 h 1.3333 c 1.1427,55.3467 50.544,97.6934 104,100 -3.6773,-5.3733 -11.3373,-6.1066 -17.3333,-7.8133 -10.9187,-3.1067 -21.984,-7.2133 -32,-12.6 -26.8253,-14.4133 -41.508,-41.2 -49.1253,-70.2533 -2.6934,-10.2667 -3.7294,-47.84 11.7866,-47.84 13.3334,0 4.7107,20.7866 16.1494,24.1333 5.4066,1.5867 14.3426,-1.9467 19.856,-2.8533 10.972,-1.8134 21.12,-1.72 32,-0.68 13.5373,1.28 24.2573,-26.28 37.1373,-21.2667 8.744,3.4133 6.1067,29.68 11.0813,37.5467 5.728,9.0533 19.7107,4.6533 27.8147,8.9866 5.3347,2.8534 5.1453,10.6267 8.832,15.0134 5.232,6.2133 25.656,13.5466 33.8013,13.6266 6.2587,0.067 13.3694,-4.88 18.6667,-7.8133 13.92,-7.72 27.6267,-16.3333 39.9867,-26.4133 7.44,-6.0667 10.96,-13.44 21.3466,-13.7734 -6.3333,21.9734 -22.5066,44.88 -34.8533,64 -4.9733,7.6934 -9.8,17.3334 -17.2,22.9467 -28.7667,21.8133 -67.9147,25.5333 -102.6133,26.3867 v 1.3333 1.3333 c 36.9133,-2.5066 81.0026,-1.6666 109.3333,-29.3333 l -1.3333,6.6667 h 1.3333 c 7.4933,-33.5734 46.16,-57.4534 48,-93.3334 8.3067,-0.013 18.5733,-1.5733 24.6533,5.6267 3.88,4.6133 1.32,15.1733 7.5467,17.2133 26.7867,8.7334 55.9467,-1.2 82.4667,-2.84 l 10.6666,-5.3333 c 6.7067,-9.64 6.2667,-23.3067 13.6534,-31.8667 7.4,-8.5866 31.64,-6.7733 42.3466,-6.8 4.08,27.6 31.5734,24.6934 53.32,19.6534 6.5067,-1.52 11.7334,-7.4 17.3467,-10.84 18.68,-11.4134 33.5867,-25.56 51.2267,-37.9467 9.8133,-6.8933 24.44,-4.7333 35.4133,-8.12 5.1467,-1.6 6.7333,-7.48 11.16,-8.96 5.4267,-1.8 12.44,13.9333 18.2,15.7733 5.88,1.8667 14,-0.76 20,-1.3333 12.68,-1.2133 24.7467,0.1733 37.3067,-2.92 15.5466,-3.8267 5,-34.08 20.1733,-42.6 4.96,-2.7867 12.9333,-2.1867 18.52,-3.3067 11.2933,-2.2666 22.2933,-6.0666 33.3333,-9.2933 6.2667,-1.84 13.1734,-8.3867 18.8934,-9.2933 6.9866,-1.1067 11.7333,8.5866 19.7733,6.48 7.4667,-1.96 13.4533,-10.08 18.6667,-15.2934 12.1333,-12.1333 27.5333,-22.1866 37.48,-36.3866 9.7333,-13.9067 0.8533,-37.8934 2.4666,-53.5067 1.2,-11.7333 7.88,-24.2533 11.6134,-35.44 8.16,-24.5067 11.9733,-51.28 29.7733,-70.6667 v -1.3333 c -5.8533,-5.8533 -16.5733,-14.7333 -18.9733,-22.8933 -5.48,-18.6934 10.4533,-37 21.4,-49.0534 3.9333,-4.3333 7.96,-10.88 13.5733,-13.12 12.52,-5.0133 25.6133,11.32 36.9333,-0.4133 14.7734,-15.3067 21.7734,-36.4667 29.1067,-55.8533 8.5333,-22.5467 17.3867,-42.04 17.96,-66.6667 -3.8267,-0.2133 -11.5733,-0.88 -10,-6.72 2.16,-8.0533 15.9867,-17.36 21.3867,-23.9467 16.7866,-20.4933 25.3733,-41.0533 31.7733,-66.6666 1.8933,-7.5334 7.56,-17.3467 4.3867,-24.9467 -7.0134,-16.7733 -22.1334,-19.3733 -32.08,-31.5733 -3.5867,-4.4134 -0.64,-10.5067 -3.5067,-15.12 -3.9333,-6.3467 -19.48,-7.5467 -11.96,-17.6934 L 2132,2214.6667 V 2213.3334 2212 c -4.12,-6.3733 -0.1067,-13.1866 5.3333,-17.3333 v -1.3333 h -4 c 0,-18.6534 2.6667,-42.24 -11.36,-57.04 -10.24,-10.8 -34.9067,-6.4667 -48.5867,-10.1867 -12.6133,-3.4133 -24.6,-13.7333 -37.3866,-18.1067 9,-28.44 9.7733,-46.7333 1.1466,-76 -3.4666,-11.72 -9.3733,-26.44 -21.1466,-31.6133 -20.28,-8.9067 -60.3334,-1.8 -73.72,-23.3333 -4.88,-7.84 10.6933,-14.5334 5.68,-23.44 -3.7067,-6.56 -14.92,-9.7467 -21.0667,-13.56 -10.4667,-6.48 -22.3333,-17.24 -31.0533,-26.08 -10.9734,-11.12 -25.3867,-28.2134 -32.68,-42.0934 -7.8,-14.8533 -10.4667,-29.5066 -23.0267,-42.0666 -11.92,-11.92 -30.1867,-21.4534 -45.4667,-28.36 -6.8666,-3.0934 -16.3466,-4.6667 -22.3066,-9.24 -14.2667,-11 -5.2934,-36.52 -26.12,-43.5334 -8.2934,-2.7866 -20.2134,-0.68 -28.9067,-0.68 -27.12,0 -53.2133,4.16 -80,5.3334 L 1644,1718.6667 c -6.6134,1.4133 -10.3067,25.1733 -12.1867,32 -9.2,33.4133 -17.48,67.8133 -23.8133,101.3333 l 1.3333,1.3334 C 1616.72,1850.36 1615.44,1839.0667 1616,1832 h 1.3333 c 8.7733,33.9067 20.52,70.0534 17.1067,105.3334 -0.5867,6.04 -0.92,16.04 -4.76,20.96 -5.5734,7.1333 -23.44,8.24 -30.5867,3.0533 -4.5067,-3.2667 -2.48,-10.0933 -6.44,-13.9333 -3.9067,-3.76 -10.7467,-1.9734 -14,-6.5067 -6.0933,-8.44 -1.9733,-22.1733 -5.44,-31.4533 -2.72,-7.2534 -10.92,-11.0134 -13.28,-18.7867 -1.8533,-6.08 1.9067,-12.2133 0.16,-18.6667 -2.8933,-10.6933 -12.8,-12.68 -17.84,-21.36 -3.3067,-5.7066 -0.3333,-11.6266 -5.2267,-17.2533 -7.1066,-8.16 -19.7733,-3.2933 -25.5866,-11.1733 -3.8534,-5.2267 -0.7067,-15.5867 -4.0934,-22.2134 -2.3466,-4.5866 -5.0133,-10.2933 -10.0666,-12.3466 -4.0267,-1.6267 -8.96,-0.053 -12.4267,-3.12 -4.36,-3.84 -4.7867,-10.7067 -9.3733,-14.4 -7.2934,-5.8667 -23.44,3.7333 -28.5734,-3.8934 -12.9733,-19.2666 2.1334,-52.2533 3.76,-72.9066 43.9734,-3.4667 82.2534,-19.92 124,-31.6134 14.68,-4.1066 36.6,-2.2533 44,-17.72 -6.0666,0.9333 -10.1333,5.24 -16,6.6933 -49.0533,12.2134 -99.9333,34.2134 -150.6666,38.6401 0.4666,-22.5867 26.6133,-28.92 46.6666,-30.6667 v -1.3333 l -42.6666,8 c 1.0533,-15.6401 9.9733,-33.6801 13.6666,-49.3334 5,-21.16 5.8534,-45.12 14.04,-65.3333 3.48,-8.6 11.3734,-14.2267 15.2267,-22.6667 4.6,-10.08 7.0133,-21.5733 11.5067,-32 1.32,-3.0533 2.2666,-8.9067 5.9333,-10.0667 6.52,-2.0666 20.2267,10.88 26.2933,13.6 23.3867,10.48 53.3467,22.1734 78.6667,26.2267 14.6267,2.3333 31.1067,-4.6933 45.3333,-7.2 18.8267,-3.2933 38.3334,-2.28 57.3334,-4.12 6.6,-0.64 16.48,-5.2267 22.6666,-4.04 21.7467,4.1733 39.92,38.0667 65.3334,34.4 6.7733,-0.9733 11.9866,-7.8667 17.3333,-11.6 7.3467,-5.1333 10.96,-8.3733 13.3333,-17.2 h -8 c 0.2267,-20.84 21.6667,-20.9867 38.6667,-21.3333 v -1.3334 L 1812,1478.6667 c -2,-19.52 -11.92,-32.2534 -8,-53.3334 22.7866,12.4667 18.6666,-20.7466 18.6666,-34.6666 H 1824 c 4.4,10.44 14.5866,28.2533 24,34.6666 0.7066,7.7334 8.5333,17.5867 16,20 V 1444 l -18.9867,-30.6667 -29.0133,-40 c 14.0133,-3.8266 22.48,-13.0666 32.68,-22.6666 26.28,-24.6947 40.4,-50.7867 46.32,-86.6667 2.2,-13.388 6.6933,-31.3093 -0.2267,-43.808 -3.24,-5.8453 -11.7733,-9.5053 -16.88,-13.712 -17.0933,-14.0987 -33.4267,-22.5013 -44.1467,-42.5987 -9.76,-18.3306 -6.12,-45.2933 -13.7466,-65.2146 h -1.3334 l 7.7734,46.6666 -1.1067,41.3334 h 1.3333 l 4,-17.3334 c 5.0134,4.3974 4.1334,10.636 8.5334,14.8227 9.5466,9.0933 21.7466,17.6573 32.8,24.8987 9.1466,5.9933 17.92,8.492 21,20.2786 3.5066,13.4254 0.28,26.8427 -2.8,40 -10.8267,46.2694 -43.1734,80.44 -83.5334,103.2267 -12.88,7.28 -35.3333,20.6933 -50.6666,19.1067 -9.6667,-1.0134 -20.0534,-9.8267 -28,-15 -33.4,-21.7334 -52.92,-56.6974 -66.6667,-94 l 9.3333,2.6666 V 1284 c -13.28,-8.024 -29.8666,-20.5387 -45.3333,-22.6667 V 1260 l 29.3333,1.3333 V 1260 L 1597.3333,1249.7987 1548,1240 l 4,-4 -6.6667,-6.6667 L 1548,1236 c -9.68,5.1347 -16.8667,14.9467 -28,18.0013 -28.6267,7.8547 -71.9334,3.8587 -100,-4.72 -13.4534,-4.112 -25.8134,-14.3613 -26.5334,-29.2813 -1.08,-22.816 17.7334,-51.0453 33.48,-66.048 6.5467,-6.2333 15.2667,-9.6147 21.0534,-16.6187 l -18.6667,8 -4,-18.6666 c 11.5467,-0.1294 25.64,-7.4227 33.3333,-16 l 9.3334,22.6666 h -9.3334 V 1136 c 3.6934,1.0493 21.7867,9.3653 22.7734,3.9347 0.4933,-2.6907 -11.3734,-13.788 -13.44,-17.268 8.5733,-1.8734 -3.3867,-9.9774 -6.6667,-12 v -1.3334 c 13.1467,-10.5586 20.5467,-26.848 25.3333,-42.6666 L 1480,1076 h -1.3334 v -8 H 1476 l 2.6666,8 -11.1066,21.56 -22.2267,21.1067 -2.6667,-1.3334 -1.3333,4 -42.6667,-1.3333 v 1.3333 l 21.3334,5.3334 4,24 c -12.12,6.2946 -26.8934,27.8373 -29.3334,41.3333 -13.16,-11.4827 -7.2933,-39.5053 -18.6666,-53.3333 -0.5467,3.7786 -0.4134,10.6933 4,10.6666 l -2.6667,2.6667 c 4.5467,14.2227 11.3733,30.4187 12.6267,45.3333 1.44,17.0587 -7.32,28.032 4.76,43.88 7.8133,10.244 21.0533,14.824 33.28,17.1054 5.5866,1.044 16.3866,0.023 19.2533,5.8786 8.6267,17.668 8.2,46.948 11.52,66.4694 9.5067,55.88 19.3067,112.4533 17.3333,169.3333 -0.7066,20.7467 -3.0666,57 -17.96,73.04 -11.1066,11.9467 -33.96,19.1733 -48.8666,25.0933 -42.8,17.0267 -87.2,30.2 -133.28,33.8667 v -10.6667 h -2.6667 c -7.9627,20.6 -48.3427,14.6667 -68,14.6667 L 1204,1624 h -1.3334 l -1.3333,13.3333 h -56 v -88 h -4 c 0,19.7734 2.008,45.2934 -1.3333,65.3334 -0.756,4.5333 4.08,18.5866 1.3333,21.3333 -4.3307,4.3333 -9.544,-0.7067 -13.3333,-1.3333 -7.308,-1.2134 -45.8933,-0.4267 -44,-8 l -4,5.3333 c -14.944,-2.7733 -30.58,-2.1733 -45.3333,-5.3467 -34.81872,-7.5066 -66.80405,-19.88 -100.00005,-32.4133 -27.376,-10.32 -56.57066,-21.8933 -74.816,-46.36 -24.01866,-32.2133 -19.59066,-85.3467 -13.512,-122.5467 3.984,-24.3866 6.30667,-49.4933 13.07334,-73.3333 16.988,-59.856 42.67866,-119.0707 55.25466,-180 h 1.33334 c 8.27466,26.148 27.028,50.0533 41.06133,73.3333 4.42267,7.336 9.21467,22.424 17.60533,25.3334 -2.59066,-11.2987 -10.07333,-21.532 -14.84666,-32.0054 -10.29467,-22.5826 -19.048,-45.7373 -26.52534,-69.328 -3.00933,-9.4986 -9.616,-20.436 -8.89466,-30.6666 1.07866,-15.3094 13.496,-29.708 20.52133,-42.6667 6.06667,-11.1893 10.588,-22.1147 20.412,-30.6667 l 12,-10.6666 v -1.3334 L 967.99999,1056 c 3.09333,-4.1347 5.33066,-10.464 9.632,-13.416 6.48266,-4.452 17.43333,-5.3987 25.03471,-6.692 20.1986,-3.4347 38.404,-8.8947 57.3333,0.108 v 1.3333 c -10.1813,7.2987 -17.3747,18.836 -25.7147,28.1187 -18.568,20.668 -42.78131,44.2427 -52.95198,70.548 h 1.33333 l 4,-8 13.79865,-13.3333 30.2014,-36 c -5.868,9.1773 -16.128,20.7546 -16,32 H 1016 l 12,-25.3334 11.6667,-17.1066 23,-30.8934 L 1072,1044 c 13.6227,-0.2627 20.252,26.704 23.0427,37.3333 1.076,4.0947 0.108,9.5414 3.624,12 l -1.3334,6.6667 v 1.3333 h 4 v 1.3334 c -3.8626,2.1146 -2.984,7.1493 1.3334,8 V 1112 h -4 l 2.6666,21.3333 h 1.3334 c 1.024,-9.3626 5.0826,-34.8146 -2.6667,-41.3333 3.0067,-14.056 -7.124,-33.896 -14.6667,-45.3333 21.7027,8.904 48.2067,25.744 72,26.488 8.5773,0.2693 16.4453,-5.5934 24,-8.9694 21.78,-9.7346 42.2507,-23.1293 62.6667,-35.3853 8.284,-4.972 20.324,-9.616 25.3333,-18.1333 L 1272,1012 l 2.6666,-2.6667 -7.8813,30.6667 1.6693,41.3853 -7.1213,45.2814 h 1.3333 l -1.3333,-5.3334 c 6.1947,-4.3213 7.2133,-15.8293 5.3333,-22.6666 l 8,-29.3334 -4,-1.3333 -1.3333,-8 v -1.3333 c 5.3667,-6.9334 6.3173,-29.3014 8.4347,-38.6667 0.8386,-3.716 1.208,-12.736 6.856,-12.5173 4.152,0.1613 9.3226,5.5026 12.5893,7.7986 3.964,2.7867 6.2333,5.644 8.12,10.052 h 13.3333 l -1.3333,2.6667 42.6667,6.6667 -10.6667,44 H 1348 l -12,-17.3334 -1.3334,1.3334 c 3.2667,5.8546 11.4134,12.2466 12.52,18.7186 2.2667,13.0987 -8.3466,33.968 -11.9466,46.6147 -8.104,28.412 -16.8574,56.548 -27.8387,84 -5.684,14.2093 -13.8333,27.9627 -18.068,42.6667 L 1280,1252 v 1.3333 l 8,2.6667 -5.3334,13.3333 -4,-10.6666 c -8.6786,4.8333 -0.6586,10.16 -1.4173,17.3333 -0.52,4.9093 -4.0907,10.4747 -6.5827,14.6667 13.0494,-2.3107 25.064,-33.1654 31.4707,-44 27.648,-46.752 58.5693,-101.4 71.196,-154.6667 h 1.3333 c 1.2667,12.5773 9.5867,23.42 21.3334,28 l -18.68,-32 9.08,-30.6667 L 1404,1000 h 1.3333 c 0,41.912 36.4,48 70.6667,48 l -1.3334,5.3333 12,-10.6666 c 19.5067,2.8413 41.4534,-29.0014 45.3334,-45.33336 14.64,5.45596 48.6933,12.21466 58.6666,-4 -24.7866,5.91867 -61.3466,5.90534 -79.72,-14.72 -10.4666,-11.74933 -10.84,-28.88133 -9.92,-43.56533 1.7867,-28.55467 5.4934,-56.33867 24.92,-78.996 22.84,-26.62533 55.4534,-28.09067 87.3867,-26.71867 v -1.33333 l -30.6667,-6.79467 -63.9466,-37.95467 -25.3867,-11.44133 -8.5067,-5.44667 12.0934,-20.076 23.9866,-59.62 7.0934,-16 c 7.5066,-0.85466 8.56,-6.88133 14.84,-9.236 23.7866,-8.91733 53.1333,-24.69333 78.4933,-26.764 v -5.33333 l -41.3333,1.33333 15.1733,-19.61466 39.5067,-33.46267 19.9866,-21.58933 -5.3333,-1.33334 c 10.2,-14.908 24.5067,-36.016 38.6933,-47.06 C 1699.84,498.40801 1715.08,492.876 1728,485.33334 v -2.66667 c -22.16,-12.41733 -47.2934,-1.296 -70.6667,-2.66667 l -9.3333,2.66667 10.6666,-8 c -1.5733,-20.89733 37.7867,-35.032 54.6667,-43.46667 4.4533,-2.224 17.6533,-5.128 19.3333,-10.092 2.68,-7.888 -28.2666,-3.96 -32.6666,-3.38933 -7.08,0.92 -14.3334,2.20133 -21.3334,3.62 -10.5333,2.13333 -21.4266,7.308 -32,7.99467 l 20,-28 c -30.6266,-1.08267 -51.5733,10.476 -80,18.66666 v -8 c -11.6,8.17067 -31.3866,28.14134 -33.3333,42.66667 h -6.6667 l 8,-48 h -1.3333 c -6.6133,9.37333 -9.8,18.79467 -14.2267,29.33333 -1.4133,3.36667 -2.4,9.976 -6.1733,11.592 -6.56,2.808 -11.76,-25.64 -13.1067,-30.25866 -2.9333,-10.04934 -13.2666,-30.02934 -9.6933,-40 2.4533,-6.836 9.3867,-10.64134 13.4,-16.34534 4.4133,-6.264 6.0133,-11.71466 13.8,-14.32133 -1.92,-12.76267 6,-29.5 7.6133,-42.66667 2.8534,-23.22933 1.6667,-51.996 -4.56,-74.548 -2.4,-8.688 -5.8133,-19.91066 -10.0533,-27.892 -2.7067,-5.12533 -7.3867,-9.31466 -3.6667,-14.89333 v -1.33333 c -26.16,-34.33867 -88.1466,-23.08667 -125.3333,-13.832 -9.68,2.40933 -24.9067,11.38533 -34.4933,10.69066 -5.2267,-0.38 -7.9334,-10.48133 -10.5467,-14.192 -8.5867,-12.168 -16.12,-17.42 -30.96,-14.66667 4.5653,1.916 10.0667,0.23334 14.4267,2.704 13.8,7.844 27.5866,34.16934 5.5733,41.07867 -6.2,1.94534 -16.0827,-7.24266 -21.3333,-10.02266 -17.8294,-9.44134 -36.8107,-17.75334 -56,-23.96934 -48.1627,-15.60133 -96.2347,-21.48667 -146.6667,-19.66533 -16.568,0.59866 -33.124,3.3 -49.3333,6.756 -8.616,1.83866 -18.076,6.01066 -26.6667,3.11866 m 216,-6.66666 -1.3333,2.66666 1.3333,-2.66666 M 939.99999,148 l 4,5.33333 -4,-5.33333 m 318.66661,2.66667 -1.3333,4 1.3333,-4 M 1113.3333,152 1112,153.33333 1113.3333,152 m -170.66665,2.66667 1.33334,1.33333 -1.33334,-1.33333 m 128.00005,0 V 156 h -5.3334 v 1.33333 h 9.3334 v 1.33334 l -13.3334,2.66666 V 156 l 9.3334,-1.33333 m -17.3334,4 c -2.6266,9.98267 -11.8626,13.32 -21.3333,15.556 -23.4813,5.544 -47.63868,7.70933 -70.66668,15.11067 4.80933,-8.47467 16.57467,-10.20934 25.33333,-12.50267 21.52665,-5.63867 44.42935,-16.22134 66.66665,-18.164 m -104.88931,7.556 0.44533,0.888 -0.44533,-0.888 m 81.77871,0.888 0.888,0.44533 -0.888,-0.44533 m -3.556,2.22267 1.3333,1.33333 -1.3333,-1.33333 m 463.9999,0 -1.3333,1.33333 1.3333,-1.33333 m -539.99995,1.33333 1.33334,1.33333 -1.33334,-1.33333 M 1517.3333,184 H 1516 l -4,-4 c 0,-5.768 -12.8134,-6.57066 -17.3334,-8 9.8534,-3.84533 20.1067,2.224 22.6667,12 m -504,-10.66666 v 1.33333 h 4 l -4,-1.33333 m 496,1.33333 1.3333,1.33333 -1.3333,-1.33333 M 959.99999,188 l -5.33334,4 v -1.33333 L 959.99999,188 m -6.66667,4 -1.33333,1.33334 L 953.33332,192 M 1524,197.33334 1526.6666,208 l -5.3333,1.33334 -4,-10.66667 6.6667,-1.33333 m -777.33334,17.33333 -6.66667,6.66667 6.66667,-6.66667 m -9.33334,20 -1.33333,1.33333 1.33333,-1.33333 m 345.33338,42.66667 -16,26.66666 c -2.6454,-9.54 5.8066,-26.328 16,-26.66666 m 89.3333,0 14.6666,6.66666 -8,2.66667 -6.6666,-9.33333 m -146.6667,1.33333 V 284 H 1032 l -16,21.33334 h -1.3333 l 10.6666,-26.66667 m 152,2.66667 1.3333,1.33333 -1.3333,-1.33333 m 3.556,0.444 0.888,0.44533 -0.888,-0.44533 M 1184,282.66667 1185.3333,284 1184,282.66667 M 993.33332,292 c -1.74533,7.476 -8.20667,11.62534 -12.96267,17.33334 -6.14266,7.37066 -10.04133,16.39333 -16.02533,23.82133 -3.44933,4.28267 -10.20267,8.79867 -12.34533,1.512 h -1.33334 l -1.33333,8 h -1.33333 L 950.66665,332 935.99999,352 c 3.40133,-13.14 6.90266,-31.496 15.60266,-42.32 6.68667,-8.31866 31.384,-16.82666 41.73067,-17.68 M 1232,293.33334 1237.3333,312 H 1236 l -4,-18.66666 m -166.6667,12 -1.3333,1.33333 1.3333,-1.33333 m -51.1106,2.22266 -0.4454,0.888 0.4454,-0.888 m 259.1106,249.77734 -17.3333,9.33333 -42.6667,24 L 1196,601.33334 h -4 v 1.33333 c 22.52,0.77867 43.8733,-12.99866 61.328,-26.332 7.708,-5.88666 14.5626,-13.30133 24.0053,-16.33466 l 12,37.33333 c -0.4227,-12.984 -10.6307,-35.29733 -2.6667,-46.66667 -7.304,-4.96666 -8.216,-18.37333 -9.3333,-26.66666 h 1.3333 l 27.6974,70.66666 18.9693,48 h 1.3333 c 3.9134,-49.58133 3.9134,-102.41733 0,-152 H 1328 c 5.3306,39.58267 17.5333,80.97734 26.5066,120 3.8534,16.73334 12.3467,38.96267 10.8267,56 L 1356,661.33334 c 5.9466,5.08933 10.4,7.73333 10.6666,16 l -40,-22.50667 -13.3333,-6.82666 -38.6667,2.68666 -49.3333,14.64667 2.6667,-4 -16,10.66667 c 6.4786,-2.36134 10.9893,-3.048 17.3333,0 L 1208,685.33334 v 1.33333 l 12,-1.33333 -12,13.33333 12,-2.66666 -1.3334,8 8,-6.66667 8,-1.33333 v -4 H 1236 l 45.3333,-14.66667 v 1.33333 c -28.6853,11.14534 -47.1213,38.16 -41.3333,69.33334 h 1.3333 c 1.172,-3.93334 5.4893,-13.756 10.9907,-8.31734 6.7266,6.64934 -8.388,13.152 -4.8347,20.09067 11.536,22.524 48.7547,15.45333 68.5107,17.56 l -6.6667,-2.66667 20,-25.33333 -10.6667,-4 v -1.33333 l 12,4 c 10.96,-33.69467 -9.3546,-70.66667 -46.6666,-70.66667 v -1.33333 c 26.2746,-2.07334 42.476,0.75866 65.3333,14.67066 7.7733,4.732 18.7067,10.51067 21.1333,19.99734 3.3734,13.18666 -5.9333,28.856 -11.8,39.99866 l 12,-10.66666 -2.6666,5.33333 c 13.1066,-6.944 14.1333,-33.10267 29.3333,-32 0,31.11333 -2.68,62.38267 -5.1333,93.38533 -1.2667,15.81467 0.2533,34.03734 -4.4934,49.28134 -5.52,17.72933 -17.96,34.824 -27.44,50.66667 -11.56,19.30266 -21.8133,41.50133 -36.9533,58.28533 -28.2667,31.33067 -70.3187,55.61199 -107.3133,75.01869 -17.6254,9.2453 -34.772,24.6213 -54.6667,28.8426 -11.4827,2.4374 -23.1573,-3.3506 -33.3333,-7.8573 -19.156,-8.4853 -38.0613,-17.504 -57.3333,-25.728 -41.432,-17.6787 -82.51338,-33.1533 -115.94805,-64.78799 -18.696,-17.68933 -27.472,-45.32133 -39.06266,-67.77333 -8.46,-16.384 -18.19867,-32.33467 -27.912,-48 -4.192,-6.76 -11.044,-13.83467 -13.62534,-21.33334 -5.56933,-16.17867 -3.452,-39.02533 -3.452,-56 h 1.33334 l 8,33.33333 5.33333,1.33334 5.33333,10.66666 -8,-18.66666 -8,-53.33334 16,-5.33333 c 1.784,11.9 9.28667,27.28133 20,33.33333 l -4,-8 18.66667,13.33334 c -5.72667,-11.51067 -24.12533,-29.79734 -17.09333,-44 9.664,-19.51867 38.94533,-34.136 58.42666,-41.50267 6.776,-2.56267 19.98934,-8.08933 25.33334,-1.164 -34.78134,1.612 -45.74,52.14267 -36,78.66667 h 1.33333 l 10.66667,-12 -2.66667,5.33333 c 8.83333,7.71867 -3.77733,19.96133 12,25.33333 l -5.33333,8 21.33333,-3.73733 41.33338,-17.596 -2.6667,-4 c 22.616,-18.72267 13.4853,-42.64667 1.3333,-64 l 10.6667,4 -4,-6.66667 8,4 -5.3333,-10.66666 5.3333,-4 c 13.544,-0.604 -13.7973,-15.248 -17.3333,-17.33334 v -1.33333 l 5.3333,1.33333 c -6.0067,-7.61866 -15.1267,-3.192 -24,-5.052 -14.36535,-3.01333 -34.86801,-7.93066 -49.33335,-4.464 -15.12266,3.62534 -27.55333,14.99867 -41.33333,21.516 l 5.33333,-12 3.99867,-20 20.00133,-58.66666 58.66665,22.66666 12,-2.66666 v -1.33334 L 1032,621.33334 v -1.33333 c -27.8173,-6.35867 -54.72668,-7.916 -80.00001,-22.66667 l 22.66666,-57.33333 h 1.33334 l 2.66666,60 c 11.71734,-38.56 10.852,-81.16 22.71865,-120.00001 12.1334,-39.70933 41.84,-78.288 66.7734,-110.66666 9.916,-12.87734 19.556,-25.972 29.708,-38.66667 3.888,-4.864 8.4026,-13.212 14.2519,-15.83867 6.9947,-3.14 13.612,4.61867 17.576,9.17734 11.5774,13.31333 23.1934,26.59066 34.6667,39.99466 15.8933,18.56934 35.424,35.97734 49.2733,56 16.9174,24.45867 29.3147,56.67734 41.0307,84.00001 6.22,14.504 21.0613,37.39866 18.668,53.33333 M 925.33332,328 902.66665,358.66667 C 900.74532,347.7 913.07732,325.472 925.33332,328 m -41.33333,25.33334 -7.95867,19.216 -10.568,7.596 L 850.66665,400 c 0.316,-15.28666 15.952,-47.476 33.33334,-46.66666 M 1518.6666,370.66667 1520,372 l -1.3334,-1.33333 M 1516,388 l 1.3333,1.33334 L 1516,388 m -688.00001,12 c -2.33734,9.84267 -8.67467,26.32934 -17.33334,32 3.628,-14.724 3.78934,-23.14666 17.33334,-32 m 693.33331,1.33334 1.3333,1.33333 -1.3333,-1.33333 M 1724,418.66667 1708,428.48 1676,445.33334 V 444 l 8,-4 v -1.33333 L 1674.6666,440 v -1.33333 c 4.0934,-1.29067 7.4534,-0.49867 8,-5.33333 l -8,2.66666 C 1689.32,422.964 1704.8,418.82534 1724,418.66667 m 2.6666,0 -1.3333,1.33333 1.3333,-1.33333 M 1720,420 l 1.3333,1.33334 L 1720,420 m -20,1.33334 1.3333,1.33333 -1.3333,-1.33333 m 4.8933,1.77733 0.88,0.44533 -0.88,-0.44533 m -39.56,6.66667 c 1.0267,0 0.2133,0.664 -0.44,0.44533 l 0.44,-0.44533 m 20,2.22266 4,-2.66666 -4,2.66666 M 1696,430.66667 1697.3333,432 1696,430.66667 m -4,1.33333 -2.6667,1.33334 v 1.33333 L 1692,432 m -909.33335,49.33334 c -5.54533,-9.08 -4.97333,-23.09334 -3.428,-33.332 0.60134,-3.98267 1.67734,-10.424 7.14934,-9.94 5.044,0.44666 4.28533,7.83866 3.89733,11.272 -1.24267,10.98 -2.11733,22.228 -7.61867,32 m 890.66665,-44 -1.3333,1.33333 1.3333,-1.33333 m 10.6667,0 1.3333,1.33333 -1.3333,-1.33333 m -7.1067,1.77733 0.88,0.44533 -0.88,-0.44533 M 757.33332,472 755.99999,473.33334 757.33332,472 m -1.33333,5.33334 v 4 h -1.33333 l 1.33333,-4 m 966.66661,5.33333 V 484 L 1684,502.66667 v -1.33333 l 22.6666,-18.66667 4,1.33333 c 0.7734,-4.636 8.32,-2.02666 12,-1.33333 m -973.33328,0 -4,25.33334 h -1.33333 c 0.068,-8.21734 0.0693,-18.71334 5.33333,-25.33334 m 577.33328,4 -1.3333,1.33333 1.3333,-1.33333 m -579.99994,22.66667 -1.33334,1.33333 1.33334,-1.33333 m 530.22264,11.556 -0.4453,0.888 0.4453,-0.888 m 365.7773,40.444 -1.3333,1.33333 1.3333,-1.33333 m -1.3333,4 -4,-1.33333 4,1.33333 m -4,1.33333 v 1.33334 l -4,1.33333 4,-2.66667 m -258.6667,22.66667 c 10.2,36.29733 18.2,77.01867 18.6667,114.66667 l -17.3333,-16 14.6666,4 -12,-12 h -12 v -2.66667 l 4,-1.33333 c -4.5866,-6.55734 -2.0266,-15.172 -1.12,-22.66667 2.2667,-19.008 -2.1866,-46.62667 5.12,-64 M 1248,594.66667 v 1.33334 h 12 l -12,-1.33334 m 13.3333,-1.33333 1.3333,1.33333 -1.3333,-1.33333 m -24,2.66667 -14.6667,6.66666 v 1.33334 c 4.204,-0.63067 16.7667,-2.30667 14.6667,-8 m -18.6667,9.33333 1.3334,1.33333 -1.3334,-1.33333 m -293.33328,2.66667 -5.23333,53.33333 -4.33334,27.6 -18.43333,16.4 28,-97.33333 m -48,10.66666 18.66667,88 -5.33334,10.66667 8,-5.33333 c -2.91333,12.7 -13.592,24.668 -24,32 l -0.005,-84 2.672,-41.33334 m 139.99995,5.33334 -5.3333,-1.33334 5.3333,1.33334 m 10.6667,-1.33334 -1.3333,2.66667 1.3333,-2.66667 m -58.66665,4 1.33333,1.33334 -1.33333,-1.33334 m -217.33333,4 19.628,94.66667 20.372,62.66667 h -1.33334 l -1.33333,-8 c -7.432,-1.13467 -11.78667,-7.22667 -17.348,-11.87467 -4.61333,-3.856 -12.46133,-7.36933 -15.56266,-12.57733 -9.05467,-15.21067 -6.604,-46.27467 -7.10934,-63.548 -0.32533,-11.09734 -5.67466,-21.33067 0.02,-32 -5.88933,-3.2 -2.912,-23.464 -1.33333,-29.33334 h 4 m 870.66658,4 1.3334,1.33334 -1.3334,-1.33334 m -297.3333,9.33334 2.6667,4 -2.6667,-4 m -63.1107,1.77733 0.888,0.44533 -0.888,-0.44533 m 68.444,2.22267 1.3334,1.33333 -1.3334,-1.33333 m 2.6667,0 5.3333,4 -5.3333,-4 m 182.2267,3.556 -0.4534,0.888 0.4534,-0.888 m -175.56,3.11066 16,6.66667 c -2.8534,-4.06667 -11.68,-10.99867 -16,-6.66667 m 178.6666,1.33334 H 1520 c -1.4134,23.75333 -9.32,41.24666 -19.6534,62.66666 -3.5333,7.31734 -5.48,17.84267 -12.3466,22.66667 3.7866,-13.144 10.3733,-25.13467 13.48,-38.66667 3.36,-14.58533 3.8933,-35.31733 14.52,-46.66666 h 2.6666 m 4,2.66666 -1.3333,1.33334 1.3333,-1.33334 m -293.3333,1.33334 1.3333,1.33333 -1.3333,-1.33333 m 284.44,0.88933 0.4533,0.888 -0.4533,-0.888 m 2.2267,-0.88933 1.3333,6.66666 h 1.3333 L 1516,660.00001 m -752.44401,3.556 -0.44533,0.888 0.44533,-0.888 m -22.22267,0.444 1.33334,2.66666 -1.33334,-2.66666 M 1512,665.33334 l 1.3333,1.33333 -1.3333,-1.33333 m -774.66668,2.66667 -1.33333,1.33333 1.33333,-1.33333 m 261.33333,0 8.00005,2.66666 v -1.33333 l -8.00005,-1.33333 m -255.99999,1.33333 -1.33334,1.33333 1.33334,-1.33333 m 22.66666,2.66667 -1.33333,1.33333 1.33333,-1.33333 m 247.99998,0 v 1.33333 h 4 l -4,-1.33333 m 196.444,0.88933 0.4453,0.888 -0.4453,-0.888 m 307.556,-0.88933 -1.3333,2.66666 1.3333,-2.66666 m -749.33331,1.33333 -1.33333,1.33333 1.33333,-1.33333 m -2.66667,1.33333 1.33334,2.66667 -1.33334,-2.66667 m 609.33328,1.33334 1.3334,1.33333 -1.3334,-1.33333 m -833.33327,25.33333 19.99999,-14.66667 9.33334,-4 24,-2.66666 c -15.192,-8.78267 -44.68267,9.26666 -53.33333,21.33333 m 201.33333,-24 1.33333,8 h -1.33333 -1.33334 l 1.33334,-8 m -146.66667,1.33333 1.33333,1.33334 -1.33333,-1.33334 m 4,0 v 1.33334 l 14.66667,1.33333 -14.66667,-2.66667 m 166.66667,0 -1.33334,1.33334 1.33334,-1.33334 m -150.66667,1.33334 1.33333,1.33333 -1.33333,-1.33333 m 898.66661,0 1.3334,1.33333 -1.3334,-1.33333 m -894.66661,1.33333 v 1.33333 l 12,1.33334 -12,-2.66667 m 13.33333,2.66667 v 1.33333 l 4,1.33333 -4,-2.66666 m 6.66667,1.33333 v 1.33333 l 13.33333,5.33334 v -1.33334 l -13.33333,-5.33333 m 102.66667,1.33333 1.33333,2.66667 h -2.66667 l 1.33334,-2.66667 m 43.99999,0 -1.33333,1.33334 1.33333,-1.33334 m 419.99995,0 1.3334,1.33334 -1.3334,-1.33334 m -462.66661,4 1.33333,10.66667 h -1.33333 v -10.66667 m 650.66661,1.33334 1.3334,1.33333 -1.3334,-1.33333 m -617.33328,1.33333 -1.33333,1.33333 1.33333,-1.33333 m 138.66667,0 c -1.03734,6.372 -5.00667,8.28533 -10.66667,10.66667 l 10.66667,-10.66667 m -145.77733,3.556 -0.44534,0.888 0.44534,-0.888 m 4.44399,-0.88933 -1.33333,1.33333 1.33333,-1.33333 m 450.66665,0 -1.3333,1.33333 1.3333,-1.33333 m -561.77731,1.77733 0.888,0.44533 -0.888,-0.44533 m 543.11061,0.88933 1.3334,1.33334 -1.3334,-1.33334 m -435.11061,2.22267 -0.44533,0.888 0.44533,-0.888 m 4.444,-0.88933 -1.33334,1.33333 1.33334,-1.33333 m 530.66661,1.33333 -1.3333,1.33333 1.3333,-1.33333 m 4,0 -1.3333,1.33333 1.3333,-1.33333 m -771.99994,1.33333 1.33333,1.33334 -1.33333,-1.33334 m 206.66666,0 1.33334,10.66667 h -1.33334 v -10.66667 m 35.556,0.88934 -0.44533,0.888 0.44533,-0.888 m -6.22267,0.444 4,13.33333 c -5.048,-3.292 -5.49066,-7.688 -4,-13.33333 m 442.22265,0.444 0.888,0.44533 -0.888,-0.44533 m 88.444,-0.444 -1.3333,1.33333 1.3333,-1.33333 m 6.6667,0 -1.3334,1.33333 1.3334,-1.33333 m -774.66667,1.33333 c -9.67067,11.68933 -26.90267,29.54267 -30.66667,44 l 14.66667,-16 -1.33334,5.33333 h 1.33334 c 5.09333,-7.72933 16.57733,-24.19466 16,-33.33333 m 771.99997,0 -4,2.66667 4,-2.66667 m -535.99998,1.33333 -1.33333,1.33334 1.33333,-1.33334 m 6.22267,2.22267 -0.44534,0.888 0.44534,-0.888 m 531.11061,-0.88933 -2.6666,2.66666 2.6666,-2.66666 m -535.99995,1.33333 v 4 h 1.33334 l -1.33334,-4 m -27.99999,5.33333 v 5.33334 h -1.33334 l 1.33334,-5.33334 m 35.99999,1.33334 v 6.66666 l -5.33333,1.33334 -1.33333,-4 6.66666,-4 m 105.33334,0 -4,6.66666 4,-6.66666 m -112,1.33333 -1.33334,1.33333 1.33334,-1.33333 m 268.00001,0 1.3333,1.33333 -1.3333,-1.33333 m -264.00001,1.33333 -1.33334,2.66667 1.33334,-2.66667 m 229.33331,1.33334 2.6667,5.33333 -5.3333,-1.33333 2.6666,-4 m 4,0 1.3334,2.66666 -1.3334,-2.66666 m -265.77731,4.88933 -0.44533,0.888 0.44533,-0.888 m 35.11066,-0.88933 1.33334,9.33333 -2.66667,-1.33333 v 1.33333 l 2.66667,8 -6.66667,-14.66667 v -1.33333 l 5.33333,-1.33333 m 228.00005,2.66666 -1.3334,1.33334 1.3334,-1.33334 m -230.66671,1.33334 v 2.66666 l 2.66666,-2.66666 h -2.66666 m 494.66661,5.33333 v 1.33333 L 1256,736.00001 v -2.66667 h 18.6666 m -21.3333,1.33333 -1.3333,1.33334 1.3333,-1.33334 m 58.6667,5.33334 2.6666,1.33333 v 1.33333 L 1312,740.00001 m -528.00001,2.66666 1.33333,4 -1.33333,-4 m 246.66671,0 -14.6667,5.33334 v -1.33334 l 14.6667,-4 m -340.00004,1.33334 2.66666,2.66666 -2.66666,-2.66666 m -220,4 v 1.33333 l 10.66667,-1.33333 h -10.66667 m 16,-1.33334 10.66667,4 v -1.33333 l -10.66667,-2.66667 m 782.66664,12 c 4.1827,-27.11066 48.416,-1.49733 20,4.44 -3.124,0.65334 -6.1933,0.884 -9.3333,0.17867 -3.804,-0.856 -7.2294,-2.86267 -10.6667,-4.61867 m -256,-10.22266 0.444,0.44533 c -0.6573,0.21867 -1.4746,-0.44533 -0.444,-0.44533 m -553.33331,3.556 v 1.33333 l 9.33334,-2.66667 -9.33334,1.33334 m 236.88933,-1.77734 -0.44533,0.888 0.44533,-0.888 m -198.22266,0.444 v 1.33334 l 4,1.33333 -4,-2.66667 m -44,4 4,-2.66666 -4,2.66666 m -6.66667,4 4,-2.66666 -4,2.66666 m 5.33334,-2.66666 1.33333,1.33333 -1.33333,-1.33333 m 247.99999,0 -1.33333,1.33333 1.33333,-1.33333 m -258.66666,5.33333 4,-1.33333 -4,1.33333 m 534.66666,-2.66667 -8,5.33334 8,-5.33334 m -537.33333,2.66667 1.33334,1.33333 -1.33334,-1.33333 m 77.33334,1.33333 c 9.604,17.992 28.24533,30.23067 35.48399,50.66667 9.47867,26.76134 5.04667,69.27734 -20.81733,85.176 -14.70533,9.03867 -33.61866,9.50134 -50.44,8.75867 -12.67866,-0.56133 -23.908,-2.104 -34.89333,-8.964 -9.65733,-6.03067 -17.28133,-16.096 -29.33333,-16.97067 v 1.33334 l 13.33333,9.33333 -2.66667,-1.33333 c 12.28934,14.432 35.77467,17.80133 43.468,37.33333 5.068,12.864 7.844,33.55733 2.26134,46.66667 -7.42,17.42666 -39.844,33.26132 -58.29467,33.49862 -18.20133,0.2347 -29.12267,-10.74662 -44.768,-17.49862 18.40933,38.65732 87.17333,20.04002 104.69067,-9.33334 6.98,-11.704 11.11333,-43.00133 -2.024,-52 2.264,-8.58133 -3.55067,-13.09733 -9.33334,-18.66666 29.62134,3.744 74.988,5.62533 89.77333,-26.66667 7.42267,-16.20933 4.09067,-32.476 6.22667,-49.33333 l 8,2.66666 v -1.33333 c -8.572,-4.828 -12.89733,-13.11067 -8,-22.66667 l -8,-14.66667 -11.12,-13.328 -23.54666,-22.672 m -82.66667,4 4,-1.33333 -4,1.33333 m 811.99994,-2.66666 -4,5.33333 4,-5.33333 m 218.6667,0 c 12.16,35.05333 -2,52.60933 -18.6667,82.66667 h -1.3333 L 1460,797.33334 h -1.3334 l -4,9.33333 c -2.3466,-9.79733 0.9067,-38.35466 10.6667,-42.66666 m -448,6.66666 v 1.33334 1.33333 l -6.6666,8 -17.33338,1.33333 c -0.86533,-13.97866 13.15198,-21.22133 23.99998,-12 m -585.33331,-4 1.33334,1.33334 -1.33334,-1.33334 m 578.66671,0 1.3333,1.33334 -1.3333,-1.33334 m -581.33337,2.66667 c -28.088,25.16 -21.53334,66.14534 -17.33334,98.66667 h 2.66667 c -1.64667,-20.844 -7.28,-37.57867 -2.03333,-58.66667 2.43733,-9.79467 5.09333,-19.07867 9.94133,-27.98 2.03067,-3.728 7.19867,-7.82533 6.75867,-12.02 m 606.66667,8 v 1.33333 l 5.3333,1.33334 -1.3333,-4 -4,1.33333 m -125.33335,1.33333 1.33334,1.33334 -1.33334,-1.33334 m 209.33335,4 2.6666,5.33334 -2.6666,-5.33334 m -133.33335,13.33334 v 1.33333 h -6.66666 l 6.66666,-1.33333 m -221.33333,1.33333 2.66667,4 -2.66667,-4 m -206.66666,18.66667 8,10.66666 -2.66667,-2.66666 -5.33333,-8 m 331.99999,6.66666 v 2.66667 h 2.66667 l -2.66667,-2.66667 m 0,4 6.66667,6.66667 -6.66667,-6.66667 m 724.89335,3.11067 0.88,0.44534 -0.88,-0.44534 m 4,1.33334 0.88,0.44533 -0.88,-0.44533 m 4.44,0.88933 1.3333,1.33333 -1.3333,-1.33333 m 2.6666,1.33333 1.3334,1.33334 -1.3334,-1.33334 m 2.6667,1.33334 1.3333,1.33333 -1.3333,-1.33333 m 2.6667,0 5.3333,4 v -1.33334 L 1632,834.66668 m -734.66668,1.33333 1.33333,1.33333 -1.33333,-1.33333 m -324,4 -1.33333,1.33333 1.33333,-1.33333 m 1065.33328,0 8,6.66667 -8,-6.66667 m -762.66661,5.33333 17.33333,30.66667 c -7.44133,-5.49333 -19.296,-20.80267 -17.33333,-30.66667 m -470.66666,2.66667 c -3.044,7.704 -8.08667,23.132 2.66666,26.66667 l -2.66666,-26.66667 m 1241.33327,0 16,30.66667 8,17.33333 -1.3333,-10.66667 h 1.3333 l 6.4267,15.61867 -11.2933,17.71467 -25.8,41.33333 4,-16 -13.8667,18.54267 -35.4667,28.124 v 1.33333 c 18.92,-5.176 35.4934,-18.81467 50.6667,-30.66667 -2.5467,36.032 1.6,79.52536 45.3333,83.99996 V 1044 c -9.2533,-3.8547 -19.72,-7.84 -26.64,-15.3533 -29.32,-31.79469 -10.3333,-83.32936 11.1334,-112.64669 5.5866,-7.61467 11.3466,-20.28267 19.5466,-25.08667 26.76,-15.67733 52.6,8.028 65.6534,30.42 5.7866,9.928 10.16,20.56267 11.64,32 h 1.3333 l 1.3333,-4 c 11.7867,13.83467 7.1334,22.844 11.2267,38.548 1.9867,7.644 6.5467,14.94536 8.7733,22.78536 H 1796 l 4,-4 c -5.8534,-15.15869 -6.0934,-30.57202 -11.04,-45.33336 -2.7467,-8.14933 -9.6134,-14.032 -13.8134,-21.33333 -9.64,-16.75333 -15.64,-33.48267 -31.28,-46.308 -14.2533,-11.684 -50.8266,-21.224 -57.2,4.97467 L 1680,897.33334 c -1.88,-14.45466 -20.12,-42.87466 -33.3334,-49.33333 m -770.66661,10.66667 2.66666,6.66666 -2.66666,-6.66666 m -202.66667,6.66666 -1.33333,1.33334 1.33333,-1.33334 m 236,40 c -21.51333,-6.64666 -31.97333,-12.93333 -33.33333,-36 15.31866,5.08 28.54933,20.884 33.33333,36 m -495.99999,-34.66666 1.33333,1.33333 -1.33333,-1.33333 m -37.33334,178.66662 c -11.07733,1.7654 -9.68666,8.72 -13.61333,17.3334 -4.72933,10.3746 -10.80933,20.5106 -16.064,30.6666 -8.108,15.668 -24.876,26.3707 -31.27866,42.6667 -3.25067,8.2747 -1.232,18.2307 0.508,26.6667 4.532,21.9666 13.96533,53.4293 37.78133,61.3333 -3.63067,-9.372 -12.10934,-15.732 -17.668,-24 -8.288,-12.3267 -13.288,-26.8667 -16.19867,-41.3333 -1.12933,-5.616 -3.73333,-13.4334 -1.896,-19.1134 1.864,-5.76 9.31467,-11.1453 13.27467,-15.6053 8.31466,-9.3613 15.16666,-18.1147 20.82933,-29.2813 4.82267,-9.5094 10.688,-18.6067 15.39467,-28.1 3.9,-7.864 2.112,-13.4667 11.59733,-17.2334 l 8,29.3334 h 1.33333 c -4.384,-19.1214 -3.52266,-40.0947 -9.45733,-58.6667 -3.348,-10.4747 -12.688,-24.83466 -9.20933,-35.99999 -28.26667,-20.48667 -29.616,-96.04267 13.33333,-100 l -5.33333,-1.33333 c 6.89066,-9.36534 14.53466,-10.17867 25.33333,-9.33334 -4.31067,-6.648 -13.90133,-3.524 -20,-0.59466 -14.29867,6.868 -28.884,19.80133 -33.44933,35.26133 -14.92,50.51867 26.77733,88.00929 26.78266,137.33329 m 29.33334,-173.33329 13.33333,4 v -1.33333 h -6.66667 l -6.66666,-2.66667 m 1101.33327,4 c -4.8133,27.976 -16.1066,56.24133 -9.0133,85.33333 1.9067,7.81334 6,15.53734 11.7867,21.16934 7.48,7.276 14.72,6.00666 12.9733,18.83062 -1.28,9.348 -9.32,15.316 -15.7467,21.3667 -20.5866,19.376 -63,23.7987 -85.28,2.4933 -27.64,-26.4426 -4.3466,-79.65596 6.8667,-109.19329 3.96,-10.41333 9.44,-24.10933 18.5467,-31.13467 15.2533,-11.75866 41.8266,-8.86533 59.8666,-8.86533 m -1122.66661,5.33333 v 1.33334 h 6.66667 l -6.66667,-1.33334 m 308.444,2.22267 0.44533,0.888 -0.44533,-0.888 m -271.11066,1.77733 1.33333,1.33334 -1.33333,-1.33334 m 462.66666,0 1.33333,1.33334 -1.33333,-1.33334 M 1656,906.66668 l -4,12 -4,8 10.6666,-20 H 1656 m -1125.33334,64 h 1.33333 c 8.09334,-20.98 15.992,-36.156 36,-48 -20.80933,-2.4 -35.148,31.78933 -37.33333,48 m 65.33333,-49.33334 1.33333,1.33334 -1.33333,-1.33334 m 2.66667,1.33334 1.33333,1.33333 -1.33333,-1.33333 m 2.66666,1.33333 v 1.33333 c 26.46267,14.75067 36.16534,43.584 62.66667,58.66667 -5.69733,-7.38133 -14.90267,-10.276 -20.81333,-17.39067 -13.28934,-15.99733 -19.63867,-36.19733 -41.85334,-42.60933 m 762.66668,0 c -0.6534,28.1 9.36,55.052 1.8933,82.66669 -1.56,5.792 -1.4267,18.948 -6.5733,22.6293 -9.5067,6.7827 -37.1987,-3.5347 -47.3187,-6.4413 -9.3773,-2.692 -14.044,-13.0467 -22.668,-17.5214 3.3787,-10.98662 22.0613,-20.10662 30.6613,-27.45329 13.5387,-11.56933 31.552,-36.432 36.0054,-53.88 h 8 m -210.6667,2.66667 -4,4 v 1.33333 l 18.6667,-1.33333 18.6666,8 c -5.4546,-18.52267 -19.3373,-8.812 -33.3333,-12 m -29.3333,0 -1.3334,4 8,1.33333 v -1.33333 l -6.6666,-4 m 14.6666,1.33333 6.6667,4 -6.6667,-4 m 506.6667,4 -1.3333,10.66667 h 4 l -2.6667,-10.66667 M 1108,934.66668 v 2.66666 h 4 v -2.66666 h -4 m 532,25.33333 -4,4 4,-4 m -889.33334,6.04267 c -22.18134,5.28533 -31.67867,52.34662 -15.44134,68.04532 5.88667,5.692 21.40267,4.0293 28.77467,2.3373 15.90533,-3.6493 36.70133,-22.4226 34.36266,-40.42529 -2.45066,-18.85067 -30.15866,-34.13467 -47.69599,-29.95733 m 2.66666,2.464 c 15.072,-3.02 41.52267,12.58266 42.46933,28.82666 1.05067,18.02666 -18.348,34.48396 -34.46933,37.97466 -5.924,1.284 -17.268,2.4347 -22.36666,-1.4453 -5.93467,-4.516 -6.77867,-15.0067 -6.94667,-21.8627 -0.41067,-16.70532 0.728,-39.36799 21.31333,-43.49332 m -223.99999,3.49333 1.33333,1.33333 -1.33333,-1.33333 m -0.88934,3.556 0.44534,0.888 -0.44534,-0.888 m -4.444,5.77733 1.33334,1.33334 -1.33334,-1.33334 m -1.33333,2.66667 c -8.036,8.74933 -18.65733,17.79999 -24.68933,27.99999 -13.41067,22.6773 -0.21067,55.8187 26.02266,59.6 33.476,4.8253 65.248,-15.604 96,-24.372 13.07067,-3.7267 32.99467,-4.0693 43.99467,-11.6667 13.756,-9.5026 18.96933,-23.5986 16.00533,-39.56129 h -1.33333 c 1.784,14.43329 -3.64,27.72929 -16.00134,36.26129 -9.19733,6.348 -22.864,5.9654 -33.332,9.656 -28.34266,9.9947 -57.96666,22.684 -87.99999,26.2894 -14.02934,1.684 -29.72534,0.764 -38.52267,-12.2267 -8.90533,-13.1507 -9.86933,-34.0307 0.30933,-46.6467 5.952,-7.376 18.36534,-15.38662 19.54667,-25.33329 m 993.33334,8 1.3333,1.33333 -1.3333,-1.33333 m 11.56,4.88933 -0.4534,0.888 0.4534,-0.888 M 1033.3333,1028 l -39.99998,7.2187 -14.61067,1.2906 L 977.33332,1000 c 12.08133,-2.25999 32.49198,14.0253 43.88138,19.168 4.8906,2.208 10.2613,3.5147 12.1186,8.832 M 1764,1000 c -6.5867,10.7533 -12.1467,22.1453 -22.6667,29.7027 -13.3733,9.6106 -33.7467,10.544 -49.3333,14.2973 v 1.3333 c 15.9066,-0.011 37.16,-3.4733 50.6666,-12.332 8.3067,-5.4533 13.6134,-13.752 21.3334,-19.668 l -1.3334,-4 6.6667,-2.6666 L 1764,1008 v -8 m 6.6666,2.6667 -1.3333,2.6666 1.3333,-2.6666 M 1540,1004 l 1.3333,1.3333 L 1540,1004 m -2.6667,1.3333 -2.6667,1.3334 V 1008 l 2.6667,-2.6667 m -694.66665,1.3334 c 11.132,48.0973 38.01334,92.6733 57.91867,137.3333 7.144,16.0267 18.36133,40.3227 -0.58533,54.6667 1.79066,15.2586 -13.188,38.8533 -18.17867,53.56 -14.40133,42.4306 -23.47467,86.8133 -37.82133,129.1066 L 833.33332,1380 v -2.6667 l -29.33333,1.3334 c -0.33334,-18.6667 -13.67067,-35.5067 -20,-53.3334 l 49.33333,-14.6666 c -8.89733,-5.6374 -32.704,8.0026 -42.66667,10.6666 l -0.12533,-24 -6.01867,-53.332 -5.856,-20.0013 4,26.6667 c -9.78666,-2.2654 -19.34933,-7.6574 -21.24799,-18.6614 -1.01867,-5.9026 5.268,-9.5013 7.064,-14.692 2.86533,-8.2813 2.39733,-18.004 3.204,-26.6466 2.02399,-21.6934 -5.02534,-38.2347 -7.68667,-58.6667 -15.65333,-1.248 -14.50533,-36.0893 -16,-48 h -1.33333 l -1.37067,15.32 -30.62933,12.2693 -24,10.5027 -57.31334,17.748 -15.728,21.4933 -21.52666,58.6667 -13.432,29.3333 -36,-12 c 1.46933,-7.3893 6.62666,-13.06 9.436,-20 5.39066,-13.3133 9.60266,-27.5973 13.74,-41.3333 3.632,-12.0573 4.64666,-27.8 11.408,-38.588 3.56533,-5.692 11.34933,-7.0587 15.85066,-12.204 4.196,-4.7973 3.52,-13.3293 7.70267,-17.0893 5.54533,-4.9827 17.57733,-4.552 24.52933,-6.248 13.39467,-3.268 25.00267,-9.736 37.33334,-15.6 14.22933,-6.768 27.87333,-21.1907 42.71866,-25.592 9.828,-2.912 28.936,0.46 38.61467,3.3213 5.99067,-8.5453 23.77067,-8.352 33.33333,-9.7333 15.24933,-2.204 30.81333,-9.344 41.08667,-20.9387 7.67066,-8.6573 7.6,-25.96 20.24666,-26.6613 M 1276,1008 l -1.3334,1.3333 L 1276,1008 m 256,0 1.3333,1.3333 L 1532,1008 m -2.6667,2.6667 1.3333,1.3333 -1.3333,-1.3333 M 893.33332,1012 927.99999,1041.3333 926.66665,1036 c 14.22134,-1.1227 26.50534,-1.872 26.66667,16 l -24,-8 4,8 h 1.33333 l -1.33333,-4 17.33333,6.6667 -6.66666,13.3333 -17.33334,54.6667 c -13.408,-8.1787 -17.47733,-23.724 -18.66666,-38.6667 l 21.33333,5.3333 c -6.33333,-2.9493 -16.64267,-4.3266 -21.696,-9.1373 -4.08933,-3.892 -4.33467,-12.304 -5.31867,-17.5293 -2.716,-14.4294 -12.38133,-36.2947 -8.98533,-50.6667 M 1796,1012 v 4 h 1.3333 L 1796,1012 m 1.3333,5.3333 v 4 h 1.3333 l -1.3333,-4 m 1.3333,5.3334 v 4 H 1800 l -1.3334,-4 m -489.3333,5.3333 1.3333,1.3333 -1.3333,-1.3333 m 491.1067,0.8893 0.4533,0.888 -0.4533,-0.888 m -489.7734,1.7774 1.3334,4 h 1.3333 v -4 h -2.6667 M 1801.3333,1032 v 4 h 1.3333 l -1.3333,-4 m -486.6667,4 1.3334,1.3333 -1.3334,-1.3333 m 0,2.6667 2.6667,5.3333 h 1.3333 l -4,-5.3333 m 488,0 1.3334,8 h 1.3333 l -2.6667,-8 m -874.66661,2.6666 1.33333,1.3334 -1.33333,-1.3334 m 393.33331,4 1.3333,1.3334 -1.3333,-1.3334 m 268,0.624 c -4.36,0.8227 -8.3467,2.5027 -12,5.0094 -28.56,19.6 -6.2,48.2306 -4.12,73.0333 1.9467,23.384 -20.6933,75.688 22.7867,75.7613 5.92,0.01 12.84,-0.664 18.6666,-1.7133 18.1467,-3.2667 32.2934,-14.5707 49.3334,-19.884 26.3733,-8.2253 67.3866,4.112 79.48,-30.164 7.3866,-20.94 -18.0267,-33.688 -32.8134,-41.6453 -22.2133,-11.9587 -44.24,-29.0787 -65.3333,-43.1507 -17.4267,-11.6253 -34.0667,-21.3947 -56,-17.2467 m 2.6667,1.2 c 19.0533,-2.508 35.8133,8.6 50.6666,18.5107 21.64,14.4493 45.04,31.4347 68,43.524 13.2934,6.996 36.08,18.7667 30.1067,37.4747 -10.4533,32.72 -53.64,21.6586 -78.1067,29.0666 -19.28,5.84 -33.5333,17.7734 -54.6666,20.0347 -5.12,0.5493 -10.88,0.6333 -16,-0.015 -35.32,-4.4693 -14.52,-54.5933 -17.0534,-75.7533 -2.7466,-23.052 -23.16,-67.552 17.0534,-72.8427 m -268,0.8427 1.3333,1.3333 L 1324,1048 m 481.3333,1.3333 v 4 h 1.3333 l -1.3333,-4 m -478.6667,1.3334 1.3334,1.3333 -1.3334,-1.3333 M 934.66665,1052 l 1.33334,1.3333 -1.33334,-1.3333 m 113.33335,0 -1.3333,1.3333 L 1048,1052 m -226.66668,1.3333 v 1.3334 l 22.66667,12 c 6.08266,-3.212 11.18,-0.668 17.33333,1.3333 -6.828,-9.272 -29.18933,-11.8627 -40,-14.6667 m 507.55598,0.444 0.888,0.4454 -0.888,-0.4454 m 145.7773,0.8894 c -0.8933,4.776 -0.8666,7.6173 4,9.3333 l -1.3333,-9.3333 h -2.6667 M 967.99999,1056 l -2.66667,2.6667 2.66667,-2.6667 m 362.22261,0.444 0.888,0.4453 -0.888,-0.4453 m 476.884,1.7787 0.4534,0.888 -0.4534,-0.888 M 737.33332,1060 l -1.33333,1.3333 1.33333,-1.3333 m 226.66667,0 -1.33334,1.3333 1.33334,-1.3333 m 80.00001,1.3333 -1.3333,1.3334 1.3333,-1.3334 m 229.3333,0 1.3333,1.3334 -1.3333,-1.3334 m 535.1067,2.2227 0.4533,0.888 -0.4533,-0.888 m -961.77335,1.7773 2.66667,2.6667 -2.66667,-2.6667 m 96,1.3334 1.33334,1.3333 -1.33334,-1.3333 m 387.11065,0.8893 0.4453,0.888 -0.4453,-0.888 m 478.2227,-0.8893 1.3333,8 h 1.3333 l -2.6666,-8 M 850.66665,1068 v 1.3333 l 9.33334,4 V 1072 l -9.33334,-4 m -105.33333,1.3333 c 0,5.024 -1.884,12.0734 4,13.3334 l -1.33333,-13.3334 h -2.66667 m 585.33328,1.3334 1.3334,1.3333 -1.3334,-1.3333 m -469.33328,2.6666 1.33333,1.3334 -1.33333,-1.3334 m 171.99998,1.3334 L 1032,1076 l 1.3333,-1.3333 m 300,1.3333 1.3333,1.3333 -1.3333,-1.3333 m 477.3333,0 1.3334,5.3333 h 1.3333 L 1810.6666,1076 m -881.33328,13.3333 1.33333,1.3334 -1.33333,-1.3334 m -337.33333,16 1.33333,1.3334 -1.33333,-1.3334 m 6.66667,0 -1.33334,1.3334 1.33334,-1.3334 m 502.66664,0 -1.3333,1.3334 1.3333,-1.3334 m -265.33331,5.3334 4,2.6666 V 1112 l -4,-1.3333 m 176.00001,0 1.3333,1.3333 -1.3333,-1.3333 m -1.3333,2.6666 v 4 l -4,4 6.6666,-8 h -2.6666 m 93.7773,0.8894 0.4453,0.888 -0.4453,-0.888 m -263.11068,0.444 1.33333,1.3333 -1.33333,-1.3333 M 538.66666,1116 l 1.33333,1.3333 -1.33333,-1.3333 m 305.33333,0 v 1.3333 l 6.66666,4 -6.66666,-5.3333 m -368,9.3333 v 1.3334 c 18.99467,5.6146 42.056,-5.1454 61.33334,-6.6667 v -2.6667 l -61.33334,8 m 441.33333,-8 c 5.00133,4.5707 8.184,9.768 4,16 l -4,-16 m 188.44398,3.556 0.4453,0.888 -0.4453,-0.888 m -252.44398,1.7774 1.33333,1.3333 -1.33333,-1.3333 m 151.55598,1.7773 0.888,0.4453 -0.888,-0.4453 m 368.444,2.2227 -1.3333,2.6666 h 2.6666 l -1.3333,-2.6666 m -605.33331,4 V 1132 l 80,24 c -15.62267,-16.2413 -57.89867,-24.8293 -80,-25.3333 m 233.33331,0 1.3334,1.3333 -1.3334,-1.3333 m 371.56,0.444 0.88,0.4453 -0.88,-0.4453 m -271.56,3.556 1.3334,5.3333 H 1104 l -2.6667,-5.3333 m 160,0 v 4 h 1.3333 l -1.3333,-4 m 188,0 1.3333,1.3333 -1.3333,-1.3333 m 2.6667,0 1.3333,1.3333 -1.3333,-1.3333 m -472.00001,2.6666 -1.33334,2.6667 h 2.66667 l -1.33333,-2.6667 M 1257.3333,1140 1252,1153.3333 l 4,-1.3333 1.3333,-12 m 225.3333,2.6667 1.3334,1.3333 -1.3334,-1.3333 m 2.6667,1.3333 24,30.6667 v -5.3334 l 5.3333,2.6667 c -5.9066,-11.08 -18.24,-22.272 -29.3333,-28 m -509.33331,1.3333 1.33333,1.3334 -1.33333,-1.3334 m 516.00001,4 -1.3334,1.3334 1.3334,-1.3334 m -516.44401,1.7774 0.888,0.4453 -0.888,-0.4453 M 1101.3333,1152 1116,1176 l -14.6667,-24 m -126.66665,1.3333 1.33334,1.3334 -1.33334,-1.3334 m 17.77734,2.2227 0.44533,0.888 -0.44533,-0.888 m 258.22261,-0.8893 c -5.6613,10.6333 -16.0466,22.0906 -16,34.6666 H 1236 c 4.6853,-8.5426 15.188,-20.7546 13.3333,-30.6666 l 4,-4 h -2.6667 M 849.33332,1156 l 1.33333,1.3333 -1.33333,-1.3333 m 2.66667,1.3333 1.33333,1.3334 -1.33333,-1.3334 m 120,0 -1.33334,1.3334 -6.66666,26.6666 10.66666,-22.6666 V 1160 c -2.61333,-0.8707 -3.40533,-1.3333 0,-1.3333 l -2.66666,-1.3334 m -90.66667,1.3334 4,4 -4,-4 m -28,1.3333 v 1.3333 c 9.54533,6.8574 28.79467,28.2707 40,28 l 4,9.3334 h 1.33333 l -5.33333,-16 h -1.33333 l 1.33333,5.3333 c -10.90267,-10.8733 -24.48533,-24.4427 -40,-28 m 529.33328,0 -1.3333,1.3333 1.3333,-1.3333 m -18.6666,1.3333 1.3333,1.3334 -1.3333,-1.3334 M 883.99999,1164 893.33332,1181.3333 883.99999,1164 m 106.66666,0 1.33334,1.3333 -1.33334,-1.3333 m 126.66665,0 1.3333,1.3333 -1.3333,-1.3333 m 356,68 v -1.3333 c -14.48,-3.3507 -36.9733,-12.8627 -42.4533,-28 -8.0134,-22.1267 27.3866,-36.408 43.7866,-34.4214 40.8934,4.956 31.96,56.712 -5.3333,58.4214 8.6933,5.6826 21.5867,-2.8 27.56,-9.4574 12.1733,-13.568 12.3333,-34.9573 -3.56,-45.6066 -15.2533,-10.2214 -39.5733,-8.1267 -53.32,3.5026 -10.56,8.944 -17.4667,24.788 -7.4933,36.7747 4.9866,5.9867 12.5333,10.4213 19.48,13.74 6.6933,3.1973 13.9333,5.7333 21.3333,6.38 m -483.99998,-65.3333 -2.66667,8 2.66667,-8 m 131.55598,0.444 0.888,0.4453 -0.888,-0.4453 m 1.7773,2.2226 9.3334,8 c 0.1173,-5.1506 -4.8574,-6.932 -9.3334,-8 m 244,2.6667 1.3334,1.3333 -1.3334,-1.3333 m -1058.2226,3.556 0.44533,0.888 -0.44533,-0.888 M 1236,1174.6667 1237.3333,1176 1236,1174.6667 M 985.33332,1176 l -4,9.3333 c 4.916,-1.5906 5.872,-4.3866 6.66667,-9.3333 h -2.66667 m 149.33328,0 5.3334,4 v -1.3333 L 1134.6666,1176 m 374.6667,0 c 1.6933,4.9373 5.28,15.2373 10.6667,16 l 4,8 -2.6667,-2.6667 c 0.053,-7.8133 -5.3467,-17.2426 -12,-21.3333 m -392.8893,2.2227 0.4453,0.888 -0.4453,-0.888 m 114.2226,-0.8894 1.3334,1.3334 -1.3334,-1.3334 m 2.6667,0 1.3333,1.3334 -1.3333,-1.3334 m 134.6667,0 2.6666,4 -2.6666,-4 M 1222.6666,1184 1224,1185.3333 1222.6666,1184 m -2.6666,1.3333 1.3333,1.3334 -1.3333,-1.3334 m 150.6666,0 1.3334,1.3334 -1.3334,-1.3334 m -389.33328,1.3334 -1.33333,13.3333 -4,4 c 6.43866,-2.256 7.328,-11.144 8,-17.3333 h -2.66667 M 1122.6666,1188 1124,1189.3333 1122.6666,1188 m 249.3334,0 1.3333,1.3333 L 1372,1188 m -1066.22267,3.556 0.44533,0.888 -0.44533,-0.888 M 1124,1190.6667 l -1.3334,2.6666 h 2.6667 L 1124,1190.6667 m 101.3333,16 -9.3333,10.6666 8,-4 -1.3334,-4 12,-18.6666 c -5.664,2.9706 -9.172,9.6746 -9.3333,16 m 146.6667,-16 2.6666,4 -2.6666,-4 m -245.3334,5.3333 2.6667,2.6667 -2.6667,-2.6667 m 246.6667,1.3333 1.3333,1.3334 -1.3333,-1.3334 m -240.8893,7.556 0.4453,0.888 -0.4453,-0.888 m -155.11068,0.444 1.33333,1.3334 -1.33333,-1.3334 m 399.55998,0.444 0.88,0.4454 -0.88,-0.4454 m -243.56,2.2227 1.3333,1.3333 -1.3333,-1.3333 m -157.33331,1.3333 -4,8 c 3.848,-0.8173 5.37466,-4.46 4,-8 m 158.66661,1.3334 9.3334,10.6666 -9.3334,-10.6666 m -354.22261,7.556 0.44533,0.888 -0.44533,-0.888 m 2.22266,-0.8894 1.33334,1.3334 -1.33334,-1.3334 m 1109.33335,0 -1.3334,1.3334 1.3334,-1.3334 m -1106.66668,1.3334 4,2.6666 -4,-2.6666 m 186.66667,0 1.33333,6.6666 1.33333,-6.6666 h -2.66666 M 777.33332,1220 l -1.33333,2.6667 1.33333,-2.6667 m 13.33333,1.3333 v 1.3334 l 26.66667,8 c -4.912,-6.5414 -18.80533,-8.9734 -26.66667,-9.3334 m -487.55599,2.2227 0.44534,0.888 -0.44534,-0.888 m 11.556,-0.8893 v 2.6666 l 2.66667,-2.6666 h -2.66667 m 1483.99994,0 1.3334,1.3333 -1.3334,-1.3333 m -1025.33328,2.6666 -4,18.6667 c 4.96933,-4.7307 6.69467,-12.232 4,-18.6667 m 48,0 v 1.3334 l 45.33333,14.6666 c -12.73733,-9.9026 -29.46666,-15.032 -45.33333,-16 m 974.22668,0.444 0.88,0.4454 -0.88,-0.4454 m -650.2267,0.8894 v 2.6666 l 2.6667,-2.6666 h -2.6667 m 134.6667,0 V 1228 h 4 l -4,-1.3333 M 313.33333,1228 l 1.33333,1.3333 -1.33333,-1.3333 m 655.99999,0 v 5.3333 h 1.33333 L 971.99999,1228 h -2.66667 m 785.33328,16 v 1.3333 c 12.6667,-1.6373 30.1734,-7.4306 38.6667,-17.3333 l -38.6667,16 m -933.77728,-14.2227 0.888,0.4454 -0.888,-0.4454 M 1080,1242.6667 l 32.1733,46.6666 13.16,20 L 1140,1324 l -62.6667,38.6667 -2.6666,-20 h -1.3334 c -1.1893,7.2 2.4294,15.92 0.069,22.6133 -6.2347,17.7067 -36.2747,27.9333 -50.736,37.3867 6.5053,17.7733 31.2346,33.72 48,40.3333 5.1773,2.04 12.9933,7.84 18.6666,5.92 11.8667,-4.0133 19.6467,-19.68 26.8933,-28.9067 15.9787,-20.32 43.2427,-36.48 54.44,-60.0133 22.5387,15.88 43.784,40.1733 63.4347,59.6133 7.8293,7.7467 19.5893,22.1867 31.232,21.72 v 1.3334 h -2.6667 V 1444 l 22.6667,-10.6667 -8,14.6667 v 1.3333 c 10.5427,11.7734 0.708,18.8 2.6667,32 14.06,-13.6133 1.9213,-34.3866 6.8226,-50.7866 4.2147,-14.1067 25.3894,-22.3067 28.54,-37.2134 2.16,-10.2133 -22.9613,-28.2666 -30.0293,-34.6666 v 4 L 1218.6666,1320 c 7.5694,-3.6907 11.5974,-11.6573 16.9934,-17.8987 12.976,-15.0093 33.9333,-33.1253 39.0066,-52.768 -8.6213,-4.0853 -23.24,-14.0746 -33.1066,-12.664 -4.8654,0.696 -8.8387,6.636 -12.208,9.7707 -11.4827,10.68 -22.2294,22.4373 -33.352,33.56 l 14.6666,-50.6667 c -6.0613,3.6947 -9.5426,27.2107 -17.3333,22.6667 H 1184 c 2.9733,3.0067 9.7146,5.316 10.7626,9.6173 2.1534,8.8427 -4.4186,26.7827 -13.048,30.3347 -6.536,2.6893 -14.5586,-9.2733 -15.048,-14.6187 l -9.3333,-16 5.3333,18.6667 -26.98,-33.3333 -11.6866,-17.3334 -44,13.3334 m 52,-13.3334 1.3333,1.3334 -1.3333,-1.3334 m 4,2.6667 4,9.3333 h 1.3333 L 1136,1232 m 85.3333,5.3333 6.6667,-2.6666 -6.6667,2.6666 m -911.99997,-2.6666 1.33333,1.3333 -1.33333,-1.3333 m 658.66666,0 1.33333,1.3333 -1.33333,-1.3333 M 292,1238.6667 294.66666,1244 292,1238.6667 m 674.66665,0 V 1244 h 1.33334 l -1.33334,-5.3333 m -98.66666,2.6666 1.33333,1.3334 -1.33333,-1.3334 m 284.88931,0.444 0.888,0.4454 -0.888,-0.4454 m -856.4453,3.112 0.44533,0.888 -0.44533,-0.888 M 1558.6666,1244 c -4.6266,13.7893 -13.64,25.9893 -17.7066,40 -2.7867,9.6467 -1.9467,19.3227 -5.7734,29.3333 -4.6933,12.2627 -17.0666,23.9467 -20.0933,36.0534 -2.1067,8.4 2.0667,19.4533 2.9867,27.9466 0.8266,7.68 -4.1334,32.2 -14.04,32.8534 -6.8,0.44 -23.8267,-9.36 -26.5067,-15.64 -10.3467,-24.24 -8.92,-57.96 -14.2133,-83.88 -1.6667,-8.1 -10.2267,-32.7627 -3.32,-38.6667 v -1.3333 l -6.6667,-10.6667 65.3333,-0.644 40,-15.356 m -502.6666,8 6.6667,-4 6.6666,-2.6667 L 1056,1252 m 848,-6.6667 2.6666,2.6667 -2.6666,-2.6667 m -1026.66668,1.3334 4,2.6666 V 1248 l -4,-1.3333 m 277.33328,0 1.3334,1.3333 -1.3334,-1.3333 M 1073.3333,1248 c -1.172,9.276 -1.652,16.728 2.6667,25.3333 l 6.6667,-16 -4,4 h -1.3334 l -4,-13.3333 m 834.6667,1.3333 4,4 -4,-4 m -753.3334,1.3334 2.6667,8 24,-8 h -26.6667 m 250.6667,2.6666 1.3333,1.3334 -1.3333,-1.3334 m -1117.3333,4 1.33333,1.3334 L 288,1257.3333 m 6.66666,0 1.33334,1.3334 -1.33334,-1.3334 m 1251.99994,0 2.6667,2.6667 -2.6667,-2.6667 m -504.4439,1.7774 0.888,0.4453 -0.888,-0.4453 m 876.4439,-0.444 1.3334,1.3333 -1.3334,-1.3333 m -1625.33327,2.6666 -2.66667,5.3334 H 292 l 1.33333,-5.3334 m 642.66666,0 1.33333,1.3334 -1.33333,-1.3334 m 98.66671,0 -2.6667,1.3334 V 1264 l 2.6667,-2.6667 m 887.9999,1.3334 1.3334,1.3333 -1.3334,-1.3333 M 934.66665,1264 l 1.33334,1.3333 -1.33334,-1.3333 m 90.66665,1.3333 v 1.3334 h 4 l -4,-1.3334 m 440,1.3334 V 1268 l 5.3333,-1.3333 h -5.3333 M 286.66666,1268 l -9.33333,18.6667 h 1.33333 L 289.33333,1268 h -2.66667 m 732.44404,0.8893 0.4453,0.888 -0.4453,-0.888 m 3.112,-0.4453 0.888,0.4453 -0.888,-0.4453 m 437.7773,2.2227 4,-2.6667 -4,2.6667 m -444,-1.3334 -9.3333,4 v 1.3334 c 3.892,-0.2787 9.52,-0.5534 9.3333,-5.3334 m -56.00001,1.3334 1.33333,1.3333 -1.33333,-1.3333 m 977.33331,2.6666 1.3333,1.3334 -1.3333,-1.3334 M 995.99998,1280 h -5.33333 v 4 l 16.00005,-6.6667 c -4.1147,-2.256 -7.86805,-1.056 -10.66672,2.6667 m 81.33332,-5.3333 -6.6666,14.6666 6.6666,-5.3333 -1.3333,-4 4,-4 -2.6667,-1.3333 M 930.66665,1276 l -1.33333,2.6667 h 2.66667 L 930.66665,1276 m 1010.66665,0 1.3333,1.3333 -1.3333,-1.3333 m -458.6667,1.3333 v 1.3334 h 6.6667 l -6.6667,-1.3334 M 929.33332,1280 l 1.33333,1.3333 -1.33333,-1.3333 m 50.66667,1.3333 -2.66667,6.6667 8,-4 -5.33333,-2.6667 m -53.33334,1.3334 v 2.6666 l 2.66667,-2.6666 h -2.66667 m 60,0 1.33334,1.3333 -1.33334,-1.3333 m 88.00005,2.6666 -1.3334,1.3334 1.3334,-1.3334 m 890.6666,1.3334 -2.6667,4 c 21.4534,13.444 47.2534,24.6106 61.3334,46.6666 h 1.3333 c -6.2267,-22.1973 -41.6267,-39.2226 -60,-50.6666 M 274.66666,1288 l -8,16 H 268 l 9.33333,-16 h -2.66667 m 650.66666,0 v 4 h 1.33333 l 1.33334,-4 h -2.66667 m 323.99998,0 1.3333,1.3333 -1.3333,-1.3333 m -180,2.6667 c 2.4734,4.9133 5.3574,6.0786 10.6667,6.6666 l -10.6667,-6.6666 m 14.2227,0.444 0.888,0.4453 -0.888,-0.4453 M 1278.6666,1292 c -0.536,7.2307 -4.08,10.688 -10.6666,13.3333 v 1.3334 c 8.072,-1.2174 15.8093,-5.7294 14.6666,-14.6667 h -4 m 692,0 1.3334,2.6667 -1.3334,-2.6667 m -887.9999,1.3333 c 3.0293,6.1987 7.9493,9.3667 14.6666,10.6667 l -14.6666,-10.6667 m 329.3333,0 1.3333,1.3334 -1.3333,-1.3334 m -488.00001,1.3334 -2.66667,6.6666 h 1.33333 l 1.33334,-6.6666 m 29.33333,0 1.33333,1.3333 -1.33333,-1.3333 m 122.66668,0 -1.3333,1.3333 1.3333,-1.3333 m 905.3333,4 L 1980,1300 l 1.3333,-1.3333 m -1142.66665,2.6666 v 1.3334 l 22.66667,2.6666 V 1304 h -13.33333 l -9.33334,-2.6667 m 241.33335,0 v 4 h 2.6667 v -4 H 1080 m -814.66667,4 1.33333,1.3334 -1.33333,-1.3334 m 653.77732,0.8894 0.44534,0.888 -0.44534,-0.888 M 264,1308 l 1.33333,1.3333 L 264,1308 m 818.6667,0 -1.3334,2.6667 H 1084 L 1082.6667,1308 M 262.66666,1310.6667 264,1312 l -1.33334,-1.3333 m 991.99994,0 1.3334,1.3333 -1.3334,-1.3333 m -78.6866,2.2973 c 12.2413,1.8107 13.32,27.1693 -1.312,25.276 -14.7,-1.92 -18.3694,-28.1867 1.312,-25.276 m 50.6866,3.036 v 1.3333 l 18.6667,-4 -18.6667,2.6667 m 25.3334,-4 1.3333,1.3333 L 1252,1312 m 214.6666,0 1.3334,1.3333 -1.3334,-1.3333 m -1207.99994,5.3333 1.33334,1.3334 -1.33334,-1.3334 M 1108,1318.6667 V 1320 l 12,1.3333 V 1320 v -1.3333 l -4,1.3333 -8,-1.3333 M 1096,1320 v 1.3333 l 9.3333,1.3334 v -4 L 1096,1320 m 26.6666,-1.3333 V 1320 h 4 l -4,-1.3333 M 1076,1320 l 1.3333,1.3333 L 1076,1320 m 30.6666,1.3333 1.3334,1.3334 -1.3334,-1.3334 M 1076,1324 l 1.3333,1.3333 L 1076,1324 m -824,8 1.33333,1.3333 L 252,1332 m 1030.6666,0 -2.6666,4 2.6666,-4 M 250.66666,1334.6667 252,1336 l -1.33334,-1.3333 m 822.66664,0 1.3334,1.3333 -1.3334,-1.3333 m -1.3333,2.6666 1.3333,1.3334 -1.3333,-1.3334 m 209.3333,1.3334 1.3333,1.3333 -1.3333,-1.3333 m 201.3333,2.6666 v 1.3334 l 8,1.3333 -8,-2.6667 m 9.3334,0 9.3333,4 -9.3333,-4 m 12,1.3334 2.6666,2.6666 -2.6666,-2.6666 m 4,1.3333 1.3333,1.3333 L 1508,1344 m -1262.22267,4.8933 0.44533,0.88 -0.44533,-0.88 m 1026.22267,0.44 13.3333,5.3334 c 0.1293,-7.64 -7.5813,-6.9734 -13.3333,-5.3334 m 760,-1.3333 1.3333,1.3333 L 2032,1348 m -748,1.3333 -1.3334,1.3334 1.3334,-1.3334 m 201.3333,0 1.3333,1.3334 -1.3333,-1.3334 m 548,1.3334 1.3333,1.3333 -1.3333,-1.3333 M 244,1352 l -1.33334,5.3333 H 244 V 1352 m 1790.6666,1.3333 1.3334,1.3334 -1.3334,-1.3334 m -749.3333,2.6667 1.3333,1.3333 -1.3333,-1.3333 m -1043.55597,6.2267 0.44533,0.88 -0.44533,-0.88 M 1288,1361.3333 l -1.3334,1.3334 1.3334,-1.3334 m 749.3333,0 1.3333,1.3334 -1.3333,-1.3334 m 1.3333,4 c 13.16,41.7867 13.36,85.96 13.3334,129.3334 h 1.3333 c 1.3733,-31.84 1.1333,-65.76 -4.56,-97.3334 -1.5867,-8.7466 -2.76,-26.44 -10.1067,-32 m -1798.6666,4 1.33333,1.3334 L 240,1369.3333 m -1.33334,2.6667 -1.33333,13.3333 h 1.33333 V 1372 m 583.99999,0 1.33334,1.3333 -1.33334,-1.3333 m 326.66665,14.6667 v 2.6666 l 2.6667,-2.6666 h -2.6667 m -911.99997,4 1.33333,1.3333 -1.33333,-1.3333 m -0.88933,4.8933 0.44533,0.88 -0.44533,-0.88 M 1148,1396 l 1.3333,1.3333 L 1148,1396 m -912,4 v 4 h 1.33333 L 236,1400 m 1242.6666,0 18.6667,10.6667 V 1412 l -16,5.3333 -2.6667,-17.3333 m -332,4 v 2.6667 h 2.6667 V 1404 h -2.6667 m 0,4 v 4 H 1148 l -1.3334,-4 M 1516,1413.3333 c -2.1334,16.1734 -2.3067,43.72 -22.6667,49.3334 V 1464 l 17.3333,-1.3333 c -0.027,9.4533 1.4667,21.2533 -1.3333,30.28 -2.2933,7.44 -7.7067,13.6533 -10.4667,20.7733 -4.4,11.3867 -0.6133,20.2267 -14.8666,26.28 0,-27.92 5.64,-56 2.28,-84 -1.0267,-8.6667 -8.0134,-28.0667 -2.5734,-35.6267 5.76,-8 18.44,-2.8933 25.6267,-8.3733 l 6.6667,1.3333 m -369.3334,0 v 16 -16 m 62.6667,1.3334 1.3333,1.3333 -1.3333,-1.3333 m 0,5.3333 1.3333,6.6667 H 1212 L 1209.3333,1420 m 0,8 v 1.3333 L 1212,1432 h 1.3333 l -4,-4 M 1144,1430.6667 v 6.6666 h 1.3333 l 1.3333,-6.6666 H 1144 M 1209.3333,1432 1204,1618.6667 h 1.3333 c 0.128,-46.1467 7.5187,-92.4 7.9947,-138.6667 0.124,-12.0133 4.6186,-39.12 -3.9947,-48 m -101.3333,1.3333 1.3333,1.3334 -1.3333,-1.3334 m 750.6666,2.6667 -1.3333,1.3333 1.3333,-1.3333 M 1144,1440 v 5.3333 h 1.3333 L 1144,1440 m -1.3334,6.6667 L 1144,1452 h 1.3333 v -5.3333 h -2.6667 M 1864,1448 l 1.3333,1.3333 L 1864,1448 m -790.6667,12 v 2.6667 L 1076,1460 h -2.6667 m 1.3334,4 -1.3334,20 8,-8 -6.6666,-12 m 67.9999,1.3333 -1.3333,2.6667 1.3333,-2.6667 m 346.6667,1.3334 1.3333,1.3333 -1.3333,-1.3333 m 392,13.3333 1.3333,1.3333 -1.3333,-1.3333 m 0,2.6667 4,4 -4,-4 m -740,2.6666 v 4 h 1.3333 l -1.3333,-4 m 121.3333,4 2.6667,16 h 1.3333 l 2.6667,-17.3333 -6.6667,1.3333 m 624,-1.3333 8,9.3333 v 1.3334 h -4 V 1500 l 16,2.6667 v -1.3334 l -20,-13.3333 m -745.3333,4 1.3333,1.3333 -1.3333,-1.3333 m 737.3333,4 v 1.3333 H 1884 L 1878.6666,1496 m 172,0 1.3334,1.3333 -1.3334,-1.3333 m -1.3333,2.6667 -1.3333,4 1.3333,-4 m -773.3333,2.6666 1.3333,4 h 1.3333 v -4 H 1276 M 2046.6666,1504 2048,1505.3333 2046.6666,1504 m -961.3333,2.6667 2.6667,4 v -4 h -2.6667 m 829.3333,0 1.3334,1.3333 -1.3334,-1.3333 m 130.6667,0 1.3333,1.3333 -1.3333,-1.3333 m -768,2.6666 c -2.4707,5.1334 -5.2933,13.48 0,17.3334 v -17.3334 m 764,0 -2.6667,4 2.6667,-4 m -118.6667,1.3334 1.3334,1.3333 -1.3334,-1.3333 m 2.6667,1.3333 v 1.3333 l 12,2.6667 v -1.3333 l -12,-2.6667 m -780.8893,3.56 0.4453,0.88 -0.4453,-0.88 m 890.2226,-0.8933 1.3334,1.3333 -1.3334,-1.3333 M 1940,1516 v 1.3333 l 29.3333,1.3334 L 1940,1516 m 32,1.3333 v 1.3334 l 52,-1.3334 h -52 m -828,5.3334 -1.3334,9.3333 H 1144 v -9.3333 m -58.6667,4 v 4 H 1088 v -4 h -2.6667 m 5.3334,4 1.3333,1.3333 -1.3333,-1.3333 m 49.3333,4 2.6666,5.3333 -1.3333,8 4,-1.3333 v -12 H 1140 m 133.3333,2.6666 1.3333,1.3334 -1.3333,-1.3334 m -197.3333,1.3334 1.3333,36 c 9.2974,-6.0267 4.0814,-28.4134 -1.3333,-36 M 1270.6666,1540 1268,1550.6667 h 2.6666 L 1273.3333,1540 h -2.6667 m 6.6667,8 1.3333,1.3333 -1.3333,-1.3333 m 3.556,7.1067 0.888,0.4533 -0.888,-0.4533 M 1280,1573.3333 c -1.74,3.6534 -3.2147,6.4 0,9.3334 l 2.6666,-9.3334 H 1280 m -192,17.3334 V 1592 c 16.5107,0 28.492,1.1733 42.6666,-8 l -15.7733,3.8533 -26.8933,2.8134 M 1277.3333,1584 v 14.6667 l -4,5.3333 8,-1.3333 -4,-18.6667 M 1076,1586.6667 1086.6667,1592 v -1.3333 l -10.6667,-4 m 138.6666,12 V 1600 l 12,-2.6667 -12,1.3334 M 1084,1597.3333 1080,1608 l 6.6667,-2.6667 -2.6667,-8 m 185.3333,9.3334 -1.3333,16 c 5.216,-3.92 4.6266,-10.0267 4,-16 h -2.6667 m -190.6666,2.6666 c -4.0614,4.6934 -5.7214,13.48 2.6666,13.3334 l -2.6666,-13.3334 m 167.9999,25.3334 -1.3333,1.3333 1.3333,-1.3333 m 264,18.6666 v 1.3334 c 32.32,-2.5467 63.4534,-13.32 96,-13.3334 10.2667,0 26.1334,-4.1733 33.4134,5.8534 14.6666,20.2 -0.9867,47.6133 2.5866,68.8133 3.8,-7.8266 3.92,-16.9333 5.8,-25.3333 3.12,-13.96 3.1734,-42.1867 -11.1866,-50.48 -8.8267,-5.0934 -22.1734,-2.8534 -31.9467,-2.8534 -32.48,0.013 -63.1867,9.5067 -94.6667,16 m -3.1066,1.7734 0.88,0.4533 -0.88,-0.4533 m -4.8934,0.8933 1.3334,1.3334 -1.3334,-1.3334 m -635.99995,53.3334 -41.33333,-10.6667 c 11.368,10.1333 30.388,15.32 45.33333,17.3333 l -2.66666,16 4,-1.3333 c 1.03733,22.7067 19.05866,27.1733 36,36.0533 24.692,12.96 46.94,30.3734 72,42.9467 29.73601,14.9067 61.53331,29.7467 94.66671,35.28 42.4813,7.12 85.6159,0.7467 127.9999,-2.16 48.468,-3.32 96.5214,-7.88 142.6667,-24.7067 25.6667,-9.3466 45.1733,-26.7866 69.3333,-38.08 l -1.3333,2.6667 h 1.3333 l 22.6667,-21.3333 V 1760 1748 h 1.3333 c 9.2934,39.04 -9.56,70.2934 -28,102.6667 L 1428,1833.3334 c 0.2133,25.04 8.3466,55.76 -1.12,80 -21.12,54.0533 -75.36,84.9333 -125.5467,106.4666 -38.7227,16.6134 -87.9973,37.1734 -130.6667,38.52 -34.0426,1.0667 -69.5586,-10.5066 -101.3333,-20.9866 -55.8266,-18.4267 -118.34665,-39.5467 -162.66665,-80 6.12134,10.5066 17.3,15.4533 26.66667,22.68 28.14133,21.7066 61.49333,36.6266 94.66668,48.8933 51.2547,18.9467 102.244,33.5467 157.3333,31.04 23.4867,-1.0667 50.9507,-12.12 73.3333,-19.28 33.2774,-10.6267 64.6747,-24.6933 94.6667,-42.5333 8.2533,-4.9067 17.8667,-7.0534 25.3333,-13.24 19.5867,-16.2534 36.0934,-42.0267 49.3334,-63.56 h 1.3333 l -42.6667,161.3333 H 1388 c 5.4,-23.36 15.4933,-46.36 22.6266,-69.3333 16.8534,-54.2267 30.7067,-111.0267 30.7067,-168 H 1440 l -4,40 h -1.3334 c 0,-32.6667 -7.0933,-68.2667 10.6667,-97.3334 l 28.92,46.6667 L 1492,1864 c -7.12,-20.8533 -24.9867,-42.56 -25.3334,-64 -7.5333,4.5467 -23.96,-16.6133 -19.8933,-23.32 5.0933,-8.3866 25.0667,-3.5066 28.88,3.3467 2.3067,4.16 4.04,9.5067 8.48,11.9333 6.1067,3.32 11.0133,-0.08 15.72,6.7334 6.1467,8.9066 0.4267,14.0933 2.48,22.64 1.1467,4.8 6.68,8.2933 9.6667,12 -10.9867,1.72 -17.2267,1.7866 -24,-8 l 6.6666,-1.3334 v -1.3333 l -16,-4 c 9.7067,18.2 26.0667,34.3067 37.2667,52 33.52,52.9467 67.3867,111.44 88.4667,170.6667 9.6533,27.1333 7.4266,59.5866 9.0533,88 3.8133,67.0666 2.4,135.68 -1.3467,202.68 -1.2133,21.6533 -2.2266,43.68 -2.76,65.32 -0.3466,14.48 0.6534,31.5466 -4.0133,45.3333 h 9.3333 l -5.3333,-1.3333 4,-33.3334 c 22.28,13.0934 1.6933,23.8534 5.3333,41.3334 L 1604,2448 l -2.6667,5.3334 c 5.3733,0.067 10.6,-2.04 16,-0.8 17.9467,4.1066 -2.8933,27.72 -8,35.4666 l -16,-5.3333 9.3333,-28 h -1.3333 c -12.0267,35.32 -34.2133,69.4667 -53.3333,101.3333 -45.3867,75.6267 -96.88,161.36 -181.3334,196 v -1.3333 c 15.9734,-9.4133 36.4267,-18.8267 45.3334,-36 -35.9734,23.7733 -71.5867,43.72 -110.6667,62.1733 -18.0747,8.5334 -36.2427,18.08 -56,22.2667 -20.0467,4.2533 -42.3373,0.9867 -62.6667,0.8933 -51.8453,-0.2266 -106.3546,-1.92 -155.9999,-18.6666 -28.45738,-9.6134 -53.69071,-25.4 -81.33338,-36 l -2.66667,-4 1.33334,2.6666 h -1.33334 l -80,-52.64 -38.66666,-28.6933 c -1.81734,-5.8533 -8.548,-8.6933 -12.952,-12.68 -8.99734,-8.1467 -16.52267,-18.0267 -24.27467,-27.32 -24.42666,-29.28 -45.55733,-61.1333 -63.69466,-94.6667 -29.42,-54.4 -50.79467,-115.4133 -63.07334,-176 -5.03466,-24.84 -3.524,-51.5733 -9.33866,-76 -19.704,9.48 -38.844,-0.16 -35.36,-24 1.11466,-7.6266 8.128,-13.4266 8.04266,-21.3333 -0.10266,-9.4133 -9,-27.6667 -1.97866,-36.3467 4.55066,-5.6133 22.668,0.3467 29.296,0.3467 v -1.3333 l -17.33334,-2.6667 v -1.3333 c 2.81067,-2.9067 5.088,-6.3334 4.68267,-10.6667 -0.39733,-4.2533 -3.528,-7.9467 -4.76533,-12 -3.848,-12.6133 -4.79867,-42.0133 14.74933,-40.4267 5.41733,0.44 10.69733,2 16,3.0934 L 645.33332,2124 l -0.56533,-38.6133 17.02933,-18 3.536,-16.72 c -10.08533,-2.4 -17.21866,-16.8133 -9.86266,-25.9733 4.75733,-5.9334 13.14666,-7.3467 17.66666,-13.7067 9.16267,-12.88 6.39867,-29.52 26.86267,-30.9867 -0.94933,-14.2133 -9.68667,-32.6933 0.0173,-47.4933 4.05067,-6.1733 13.06934,-7.04 17.52534,-12.9467 8.34666,-11.0666 6.604,-18.6933 21.124,-23.56 l 5.33333,-12 -10.66667,9.3334 h -1.33333 c -8.27867,-2.08 -13.552,15.1733 -16.48,21.2 -3.68667,7.5866 -12.28933,8.3466 -17.768,13.9866 -5.01067,5.16 -5.85067,16.5867 -6.69867,23.48 -0.91333,7.4267 10.504,19.24 3.148,23.96 -4.708,3.0267 -10.69066,0.12 -15.53466,-0.7866 -11.872,-2.24 -21.73734,-2.7467 -21.276,-17.84 1.19066,-38.88 4.83466,-78.44 23.94266,-113.3334 h 1.33334 v 13.3334 h 5.33333 c 0,-11.9734 1.84133,-25.6534 0.45733,-37.3334 -1.61066,-13.6 -9.492,-27.9333 -12.932,-41.3333 -3.672,-14.3067 -3.65333,-30.44 -5.31733,-45.2133 -1.868,-16.5867 -3.80267,-44.16 6.16933,-58.5334 10.79467,-15.56 31.02267,-9.6933 46.28934,-6.8 35.168,6.6934 71.86266,8.3467 106.66666,17.04 16.81333,4.2134 32.092,5.84 37.33333,24.1734 m -44,-9.3334 c -5.18533,-8 -27.07333,-5.2933 -36,-5.3333 -29.04666,-0.1467 -59.96666,-4.9067 -86.66666,-16 V 1676 l 5.33333,-5.3333 c -18.252,-0.9467 -9.688,14.0667 1.33334,18.72 9.59466,4.0667 21.74933,4.5733 32,6.28 26.78933,4.4667 57.00666,9.3467 83.99999,4.3333 m 44,33.3334 c -7.55733,13.0133 -5.73733,26.1333 -1.33333,40 -8.52933,-3.2 -20.884,-6.6934 -25.528,4.0266 -2.12,4.8934 -0.744,12.56 -5.712,15.9334 -7.484,5.0933 -19.41333,0.2533 -27.28133,5.2933 -8.01334,5.12 -7.68534,21.0267 -10.812,29.4133 12.25066,2.8534 7.632,-18.5733 14.86266,-24.76 7.28667,-6.2266 29.01067,-6.4133 38.47067,-7.24 -15.304,15.3067 -37.24267,29.5067 -46.66667,49.3334 l 44.03334,-41.28 17.3,-18.72 h -1.33334 l -12,10.6666 -10.66666,-1.3333 c 2.35066,-10.16 15.23866,-30.6533 26.64933,-14.24 4.91067,7.0533 4.23867,24.4667 4.33733,32.9067 0.15867,13.5733 -8.344,27.8266 -10.60533,41.3333 -6.448,38.5067 -6.36933,74 7.61867,110.6667 h 1.33333 l -7.948,-53.3334 3.948,-56 h 1.33333 c -0.028,10.28 -2.35466,20.3867 -0.748,30.6667 4.44934,28.4933 23.272,48.2133 39.41467,70.6667 l 8,2.6666 c -11.34,-17.1466 -26.98,-31.72 -35.584,-50.6666 -10.77067,-23.72 -7.71467,-53.72 -3.08267,-78.6667 h 1.33334 l 5.33333,9.3333 h 1.33333 l -9.944,-38.72 -3.38933,-14.6133 c 6.51333,-9.3067 -2.16267,-23.16 -3.6,-33.3333 -0.76133,-5.3867 0.49867,-10.6934 -0.4,-16 l 4,-4 h -2.66667 m 545.77338,50.2266 0.4533,0.88 -0.4533,-0.88 m 58.2266,13.7734 1.3334,1.3333 -1.3334,-1.3333 m -2.6666,1.3333 1.3333,1.3333 -1.3333,-1.3333 m -1.3334,9.3333 1.3334,1.3334 -1.3334,-1.3334 m 5.3334,4 6.6666,6.6667 L 1472,1812 m -726.66668,70.6667 h 1.33334 l 3.452,-30.3867 17.59733,-8.8533 10.85333,-14.24 16.09733,-1.1867 c -16.99333,-12.6666 -18.72,2.7467 -29.83999,10.7467 -5.18267,3.7333 -12.70934,3 -17.58134,7.52 -6.172,5.72 -5.296,29.3067 -1.912,36.4 m 62.66667,-53.3333 -1.33334,2.6666 1.33334,-2.6666 M 1538.6666,1888 c 12.84,-3.4666 17.0934,8.48 21.3334,18.6667 l -9.3334,1.3333 v 1.3334 c 4.3467,0.093 10.32,-0.1067 13.88,2.8533 8.16,6.76 6,24.0667 -3.2133,27.8133 L 1548,1909.3334 c -11.0934,-10.5067 -32.0267,-36.4134 -33.3334,-52 l -16,-20 c 8.3334,-0.9067 19.8934,-5.9867 28,-2.9867 9.4134,3.48 3.9067,11.0933 7.8134,17.6533 4.0133,6.7334 28.9466,21.4934 17.0933,30.9467 -3.76,2.9867 -9.0133,2.04 -12.9067,5.0533 M 1504,1837.3334 l -2.6667,1.3333 V 1840 L 1504,1837.3334 M 842.66665,1840 v 2.6667 L 845.33332,1840 h -2.66667 m 595.99995,0 1.3334,1.3334 -1.3334,-1.3334 m -646.66661,2.6667 V 1844 h 5.33333 l -5.33333,-1.3333 m 50.66666,1.3333 -1.33333,9.3334 h 1.33333 V 1844 m 40,0 1.33334,1.3334 -1.33334,-1.3334 m 555.99995,0 1.3334,1.3334 -1.3334,-1.3334 m -554.66661,2.6667 10.66666,34.6667 h 1.33334 l -12,-34.6667 M 1528,1848 l -1.3334,2.6667 h 2.6667 L 1528,1848 m -118.6667,2.6667 L 1404,1860 h 1.3333 l 4,-9.3333 M 867.99999,1852 l -1.33334,1.3334 1.33334,-1.3334 m 649.33331,5.3334 5.3333,-4 -5.3333,4 m -674.66665,-2.6667 1.33334,1.3333 -1.33334,-1.3333 m -1.33333,2.6667 1.33333,1.3333 -1.33333,-1.3333 m -48,1.3333 1.33333,1.3333 -1.33333,-1.3333 m 48,1.3333 v 13.3334 h 1.33333 L 841.33332,1860 m -50.66667,1.3334 -4,6.6666 6.66667,-5.3333 -2.66667,-1.3333 m 746.66665,0 1.3333,1.3333 -1.3333,-1.3333 M 789.33332,1868 c -8.18267,4.9334 -13.34267,12.8 -17.33333,21.3334 -6.00667,-1.2534 -15.98667,0.36 -20,5.3333 l 18.66667,-4 -14.66667,30.6667 -4,-2.6667 c 5.45867,16.9867 -13.96533,35.2533 -26.66667,42.6667 v 1.3333 L 738.66666,1956 c -22.44667,53.9867 -50.952,107.2534 -66.168,164 -3.35867,12.5334 -7.33334,24.9334 -11.132,37.3334 -1.35067,4.4133 -1.80267,11.8266 -5.94,14.6266 -3.90667,2.6534 -10.92934,1.3734 -15.42667,1.3734 V 2176 l 16,1.3334 c -4.31867,20.92 -8.416,41.48 -11.232,62.6666 -1.44533,10.8667 -2.29733,26.7734 4.56533,36 l -1.33333,-6.6666 h 2.66667 c -4.13867,-12.7867 -0.872,-28.44 1.596,-41.3334 4.12666,-21.5733 8.01066,-42.7866 13.83866,-64 17.01467,-61.9066 40.95067,-121.4 67.04667,-180 12.19733,-27.3866 30.57467,-55.2666 38.852,-84 h 1.33333 c -21.644,75.7067 -63.664,147.1334 -65.33333,228 h 1.33333 c 4.12534,-52.2 24.86667,-108.4266 42.73734,-157.3333 5.848,-16 11.46133,-32.0667 17.51866,-48 2.98534,-7.8533 8.24,-16.88 7.744,-25.3333 3.78933,-2.84 8.98267,-12.0534 5.33333,-16 V 1880 c 4.87467,-1.72 5.16134,-4.5733 4,-9.3333 l 4,-1.3333 -1.33333,-1.3334 m 52,6.6667 8,40 h 1.33333 c -1.324,-9 -2.75466,-34.3333 -9.33333,-40 m -58.66667,6.6667 -1.33333,1.3333 1.33333,-1.3333 m 711.99995,1.3333 1.3334,1.3333 -1.3334,-1.3333 m -1123.99994,2.6667 v 4 h 1.33333 l -1.33333,-4 m 1163.99994,0 -1.3333,2.6666 H 1536 l -1.3334,-2.6666 m -754.66661,1.3333 -1.33334,1.3333 1.33334,-1.3333 m -1.33334,2.6667 -4,10.6666 h -1.33333 l 5.33333,-10.6666 m -33.33333,4 v 1.3333 h 5.33334 l -5.33334,-1.3333 M 370.66666,1908 v 2.6667 h 4 V 1908 h -4 m 15.11067,3.56 0.44533,0.88 -0.44533,-0.88 m 1115.55597,-0.8933 1.3333,1.3333 -1.3333,-1.3333 m 1.3333,5.3333 1.3334,1.3334 -1.3334,-1.3334 m 3.1067,11.56 0.4533,0.88 -0.4533,-0.88 m -1205.3293,5.3334 0.44533,0.88 -0.44533,-0.88 m 1206.2226,4.44 2.6667,4 -2.6667,-4 m 64,5.3333 c 5.6267,6.3333 10.4134,8.08 18.6667,8 0.56,13.1467 12.7067,32.24 -1.3333,40 -6.2667,-10.72 -11.9067,-22.16 -17.3334,-33.3333 -2.7466,-5.64 -6.7066,-10.8667 0,-14.6667 M 1508,1944 l 1.3333,1.3334 L 1508,1944 m 1.7733,8.8934 0.4533,0.88 -0.4533,-0.88 M 1578.6666,1952 1580,1953.3334 1578.6666,1952 m -857.33328,10.6667 1.33334,1.3333 -1.33334,-1.3333 M 1512,1965.3334 v 8 h 1.3333 l -1.3333,-8 m -642.22268,2.2266 0.44533,0.88 -0.44533,-0.88 m 643.55598,9.7734 v 8 h 1.3333 l -1.3333,-8 m 1.3333,9.3333 1.3334,1.3333 -1.3334,-1.3333 m 0.44,3.56 0.4534,0.88 -0.4534,-0.88 m 0.8934,3.1067 1.3333,1.3333 -1.3333,-1.3333 m 78.6666,0 c 7.16,7.48 12.0667,15.0266 22.6667,17.3333 l -4.1067,18.28 0.1067,12.3867 c 6.52,8.16 10.1067,28.2666 4,37.3333 18.5467,9.48 4.24,20.8533 6,34.6667 2.68,21 11.44,39.4133 12.6667,61.3333 l -17.3334,6.6667 c 0,-34.92 -2.1466,-69.2534 -5.24,-104 -0.72,-8.16 -8.3466,-28.64 -1.4266,-34.6667 v -1.3333 c -6.3067,-1.36 -2.0534,-6.6134 0,-10.6667 l -5.3334,2.6667 c -3.5333,-9.1067 -19.4,-32.1867 -12,-40 m -80,4 1.3334,4 h 1.3333 v -4 h -2.6667 m 2.6667,5.3333 1.3333,1.3333 -1.3333,-1.3333 M 711.99999,2004 l 1.33333,1.3334 -1.33333,-1.3334 m -2.66667,1.3334 -4,1.3333 V 2008 l 5.33334,-1.3333 -1.33334,-1.3333 m 807.99998,0 v 4 h 1.3333 l -1.3333,-4 M 702.66666,2008 l 1.33333,1.3334 -1.33333,-1.3334 m 895.99994,1.3334 v 1.3333 h 6.6667 l -6.6667,-1.3333 m -906.66661,1.3333 4,2.6667 V 2012 l -4,-1.3333 m 825.33331,0 1.3333,1.3333 -1.3333,-1.3333 M 685.33332,2012 v 1.3334 h 5.33334 L 685.33332,2012 m 833.33328,2.6667 L 1520,2028 h 1.3333 l -2.6667,-13.3333 M 705.33332,2016 v 1.3334 h 4 l -4,-1.3334 m 813.33328,13.3334 v 4 c 2.68,-1.5067 2.68,-2.4934 0,-4 m 1.3334,5.3333 1.3333,1.3333 -1.3333,-1.3333 m 0,2.6667 2.6666,4 -2.6666,-4 m 0.8933,5.7733 0.88,0.4533 -0.88,-0.4533 m 91.1067,-0.44 1.3333,1.3333 -1.3333,-1.3333 m -91.1067,3.1067 0.88,0.4533 -0.88,-0.4533 m -837.33731,2.6666 0.888,0.4534 -0.888,-0.4534 m 837.77731,-0.44 1.3333,5.3334 H 1524 L 1521.3333,2048 m -854.66664,2.6667 1.33333,1.3333 -1.33333,-1.3333 M 1522.6666,2056 1524,2057.3334 1522.6666,2056 m -1.3333,4 4,13.3334 -4,-13.3334 m -850.66664,10.6667 1.33333,1.3333 -1.33333,-1.3333 m 5.33333,0 2.66667,2.6667 -2.66667,-2.6667 m 848.00001,4 -1.3334,5.3333 H 1524 v -5.3333 m 90.6666,0 1.3334,1.3333 -1.3334,-1.3333 M 1524,2081.3334 v 8 h 1.3333 l -1.3333,-8 m 0,10.6666 v 2.6667 L 1526.6666,2092 H 1524 m 1.3333,5.3334 V 2104 h 1.3333 l -1.3333,-6.6666 m 0,8 1.3333,1.3333 -1.3333,-1.3333 M 950.66665,2108 l 1.33334,1.3334 -1.33334,-1.3334 m 5.33334,4 1.33333,1.3334 -1.33333,-1.3334 m -293.33333,4 1.33333,1.3334 -1.33333,-1.3334 m 3.556,0.44 0.888,0.4534 -0.888,-0.4534 m 3.11066,-0.44 1.33334,1.3334 -1.33334,-1.3334 m 855.99998,2.6667 1.3333,1.3333 -1.3333,-1.3333 m -555.99998,10.6667 2.66667,2.6666 -2.66667,-2.6666 m 9.33333,9.3333 2.66667,2.6667 -2.66667,-2.6667 m 5.33334,5.3333 5.33333,5.3334 -5.33333,-5.3334 m 637.33331,2.6667 1.3333,4 L 1628,2148 l -6.6667,-1.3333 M 1620,2152 l 1.3333,1.3334 L 1620,2152 m -917.33334,1.3334 1.33333,1.3333 -1.33333,-1.3333 m 290.66666,0 4,4 -4,-4 m -290.66666,5.3333 v 6.6667 h 1.33333 l -1.33333,-6.6667 m 300.00004,4 2.6666,2.6667 -2.6666,-2.6667 m -300.00004,6.6667 V 2176 h 1.33333 l -1.33333,-6.6666 m 308.00004,0 1.3333,1.3333 -1.3333,-1.3333 M 702.66666,2180 c 0,48.7867 6.668,100.9067 19.796,148 3.29466,11.8134 5.096,37.4667 14.87066,45.3334 l -27.63866,-134.6667 -4.13867,-40 L 702.66666,2180 m 320.00004,0 1.3333,1.3334 -1.3333,-1.3334 m 2.6666,2.6667 1.3334,1.3333 -1.3334,-1.3333 m 5.3334,4 1.3333,1.3333 -1.3333,-1.3333 M 1626.6666,2188 c -1,14.2267 7.5067,14.3867 20,16 l -0.28,25.3334 -2.4933,12 9.44,17.3333 c -12.5467,9.0933 -20.1733,36.1067 -17.1467,51.88 2.28,11.88 7.9734,15.76 3.8134,29.4533 h -1.3334 l -1.3333,-5.3333 c -19.7067,5.9733 -4.04,36.0667 -4,48 l -14.6667,2.6667 v 1.3333 l 6.6667,1.3333 -5.3333,21.3334 c -8.24,-3.7467 -10.1867,-15.2534 -2.6667,-21.3334 v -1.3333 c -5.1467,-4.4933 -1.4,-15.1067 -1.3333,-21.3333 0.2133,-20.88 2.4933,-41.8134 2.6666,-62.6667 l 6.6667,1.3333 1.3333,-4 -1.3333,-1.3333 c -11.52,0.4533 -6.8,-26.7733 -5.3333,-34.6667 h 12 c -3.16,-4.6533 -8.2134,-2.9066 -13.3334,-2.6666 L 1621.3333,2248 h -2.6667 c 3.3067,-13.88 1.36,-29.7866 1.3334,-44 -0.013,-7.3733 -2.68,-15.2533 6.6666,-16 m -591.9999,2.6667 V 2192 l 5.3333,2.6667 -5.3333,-4 m 9.3333,6.6667 2.6667,2.6666 -2.6667,-2.6666 m 4,2.6666 1.3333,1.3334 L 1048,2200 m 573.3333,1.3334 v 1.3333 l 5.3333,1.3333 -1.3333,-4 -4,1.3334 M 1052,2204 l 1.3333,1.3334 L 1052,2204 m 2.6667,1.3334 1.3333,1.3333 -1.3333,-1.3333 m 3.556,3.1066 0.888,0.4534 -0.888,-0.4534 m 10.2213,7.12 0.4453,0.88 -0.4453,-0.88 m 2.2227,0.44 1.3333,1.3334 -1.3333,-1.3334 m 4,4 1.3333,1.3334 -1.3333,-1.3334 m 5.3333,2.6667 1.3333,1.3333 -1.3333,-1.3333 m 5.3333,4 1.3334,1.3333 -1.3334,-1.3333 M 1088,2228 l 1.3333,1.3334 L 1088,2228 m 5.3333,2.6667 1.3334,1.3333 -1.3334,-1.3333 m 537.3333,8 -1.3333,4 h 1.3333 v -4 m -4,2.6667 -2.6666,4 2.6666,-4 m -4,5.3333 1.3334,1.3333 -1.3334,-1.3333 M 647.99999,2284 l 5.33333,54.6667 c -19.09866,0 -29.284,-21.8667 -29.33333,-40 l 21.33333,-1.3333 V 2296 l -12,-1.3333 L 630.66666,2284 h 17.33333 m -551.555591,11.56 0.444533,0.88 -0.444533,-0.88 m 1530.222201,3.1067 V 2300 h 4 l -4,-1.3333 M 1624,2336 l 1.3333,1.3334 L 1624,2336 m -969.33334,6.6667 c 2.56933,19.8933 16.89333,48.6267 12,68 7.16533,4.9067 9.45466,19.76 10.66666,28 -14.12933,-1.4667 -10.576,-12.0133 -17.13866,-21.1333 -6.176,-8.5867 -15.29467,-7.2134 -18.83334,-20.2 -2.61733,-9.6134 9.472,-15.1334 10.51467,-24 0.988,-8.4 -6.67867,-20.44 -7.876,-29.3334 l 10.66667,-1.3333 m 81.33333,32 8,20 -8,-20 m 8,26.6667 1.33333,1.3333 -1.33333,-1.3333 m -64,41.3333 36,86.6667 -21.33333,4 0.0293,-12.64 -16.59867,-14.0267 0.248,-21.3333 -13.012,-24 10.66667,-5.3334 -5.33333,1.3334 -1.33334,-12 10.66667,-2.6667 m 925.33334,1.3333 1.3333,1.3334 -1.3333,-1.3334 m 1.3333,50.6667 c -1.1866,9.8133 -1.0266,33.3067 -6.52,40.9333 -6.3866,8.8534 -20.2,11.9467 -24.9066,21.76 -5.2667,10.9867 -1.6267,24 -4.6267,34.64 -1.7867,6.2934 -8.6933,12.1067 -12.5067,17.3334 -5.7333,7.84 -20.76,37.8933 -32.6,35.76 -4.28,-0.76 -7.2533,-7.2267 -9.5066,-10.4267 l 2.6666,8 -16,-5.3333 56,-90.6667 13.3334,6.6667 V 2552 l -9.5734,-6.9466 7.0934,-17.0534 21.1466,-41.3333 16,8 m -160,20 1.3334,1.3333 -1.3334,-1.3333 m 124,16 2.6667,5.3333 h 4 l -6.6667,-5.3333 M 718.66666,2532 l 9.33333,18.6667 c -5.808,3.9867 -12.54933,12.5333 -20,12.6 -7.41067,0.067 -24.232,-13.9867 -18.556,-22.28 3.14933,-4.6 23.408,-7.0533 29.22267,-8.9867 m 718.66664,0 1.3333,1.3334 -1.3333,-1.3334 m 140,6.6667 1.3333,1.3333 -1.3333,-1.3333 M 1434.6666,2540 1436,2541.3334 1434.6666,2540 m 137.3334,13.3334 1.3333,1.3333 -1.3333,-1.3333 m -840.00001,1.3333 c 8.28,17.5067 21.46933,33.9733 33.17867,49.3333 3.66133,4.8 14.06799,13.52 13.43866,20 -0.67467,6.9334 -14.42933,17.5867 -20.96933,12.4667 -10.224,-8.0267 -6.55333,-18.8667 -11.524,-28.2667 -2.72667,-5.16 -9.552,-3.8266 -14.072,-6.2933 -15.50667,-8.4933 -10.48267,-18.2 -6.71867,-31.24 L 715.99999,2568 c 2.22533,-7.3066 8.848,-11.4666 16,-13.3333 m 0,8 -1.33333,4 1.33333,-4 m 688.44001,2.2267 0.4533,0.88 -0.4533,-0.88 M 726.66666,2568 l -1.33334,2.6667 h 2.66667 L 726.66666,2568 m 97.33333,18.6667 5.33333,5.3333 -5.33333,-5.3333 m 6.22266,9.7733 0.888,0.4534 -0.888,-0.4534 m 3.11067,4.8934 4,8 1.33333,-1.3334 -5.33333,-6.6666 m 563.55998,0.44 0.88,0.4533 -0.88,-0.4533 m -3.56,4.8933 1.3333,1.3333 -1.3333,-1.3333 m 137.3333,0 1.3334,1.3333 -1.3334,-1.3333 m -771.99994,2.6667 1.33333,1.3333 -1.33333,-1.3333 m 79.99999,0 1.33334,1.3333 -1.33334,-1.3333 m 695.99995,0 5.3334,4 V 2612 l -5.3334,-2.6666 M 839.99999,2612 846.66665,2622.6667 839.99999,2612 m -88,2.6667 1.33333,1.3333 -1.33333,-1.3333 M 1386.6666,2616 1388,2617.3334 1386.6666,2616 m -541.33328,8 c 3.67067,7.8667 8.17733,18.3334 16,22.6667 -2.98667,-7.6 -8.77067,-18.7067 -16,-22.6667 m -62.66667,2.6667 c 14.87867,15.5467 30.08134,27.8533 45.89867,42.0667 6.20933,5.5733 13.40667,8.9066 14.10133,17.9333 h 1.33334 l 1.33333,-4 c 15.08267,12.12 20.252,20.1867 14.66667,40 l 4,-1.3333 v -22.6667 c 8.568,4.0667 22.45066,11.9067 25.33333,21.3333 11.90933,-0.5333 24.648,12.5067 34.66667,18.2934 18.736,10.8133 37.47066,21.88 57.33333,30.48 15.82,6.84 32.94268,9.9333 43.99998,23.2266 l -1.3333,-5.3333 69.3333,14.6667 -9.3333,16 c 4.9533,-4.1067 9.096,-12.88 15.0667,-15.1467 5.076,-1.92 14.2826,0.5467 19.5999,1.2533 10.7694,1.4134 22.4694,1.8934 33.3334,1.8934 4.9693,0 14.0013,-1.5867 18.2093,1.68 6.952,5.4 8.116,28.9466 1.368,34.68 -4.7653,4.0533 -13.6253,4.2133 -19.5773,4.9733 l -4,-36 h -2.6667 l 1.3333,26.6667 h -13.3333 v 5.3333 l -34.6666,4 4,-12 -15.9947,-5.68 -14.692,4.2133 -26.6467,-7.8666 2.6667,-8 -25.3333,-12 c -2.996,13.8 -15.7387,7.9333 -25.33338,8.1733 -4.632,0.1067 -11.12267,2.7733 -15.31467,-0.2133 -6.49866,-4.6267 -4.156,-13.9467 -13.77333,-17.56 -4.616,-1.7467 -7.552,3.76 -12.26533,3.5733 -6.74934,-0.2667 -13.572,-4.1467 -19.98,-5.9733 l -4,-28 v 4 l -28,-17.3334 -8,6.6667 c -12.47334,-3.7333 -7.62134,-10.0667 -8,-20 h -1.33334 l -1.33333,6.6667 c -7.71733,-2.72 -12.25733,-11.0667 -20,-12.9067 -6.65333,-1.5733 -12.24133,3.8 -18.66667,2.5867 -19.364,-3.68 -15.83066,-20.72 -5.33333,-32.3467 v -1.3333 -2.6667 -1.3333 l -2.66667,5.3333 -2.66666,2.6667 c -16.93734,-4.8934 -13.716,-14.0534 -23.34134,-24.64 -5.44666,-5.9867 -10.14133,-2.72 -16.66,-4.5734 -5.06266,-1.4533 -9.512,-6.5733 -13.30666,-10.0133 -7.54667,-6.8533 -1.64,-10.0533 -4.716,-17 -1.33867,-3.0133 -6.22533,-5.64 -8.64267,-7.7733 V 2640 l 13.33333,-13.3333 m 730.66665,4 1.3333,4 H 1516 v -4 h -2.6667 m -144,6.6667 1.3333,1.3333 -1.3333,-1.3333 m 137.3333,1.3333 c 0,5.1867 12.7334,9.84 17.3334,9.3333 l 10.6666,6.6667 -28.88,26.8933 1.0534,14.44 -11.36,20.84 -12.8134,1 L 1464,2724 c 3.8266,11 -10,15.16 -16,22.6667 l -5.3334,-4 4,20 c -20.6133,-4.0133 -35.6666,13.12 -52,21.8 -7.4,3.9467 -13.9066,1.48 -21.3333,3.6133 -6.56,1.88 -11.8933,6.2934 -18.6667,7.92 l -13.3333,-28 5.3333,21.3334 -13.3333,2.6666 v -22.6666 c 8.5467,-2.7867 31.2667,-15.92 38.6667,-8 h 1.3333 c 2.3467,-7.2534 11.12,-8.68 17.3333,-12.04 16.24,-8.76 28.9334,-24.36 45.3334,-31.96 l 4,10.6666 c 0.5866,-9.56 -2.48,-16.3866 8,-21.3333 0.4533,-11.9867 22.08,-27.2933 29.3333,-37.3333 L 1492,2676 v -1.3333 l -12,-6.6667 12,-17.3333 h 1.3333 L 1496,2668 c 2.6666,-10.8666 -6.72,-26.3866 10.6666,-29.3333 M 791.99999,2644 l -1.33334,2.6667 1.33334,-2.6667 m -4,1.3334 -4,2.6666 v 1.3334 l 4,-4 m 574.66661,0 1.3334,1.3333 -1.3334,-1.3333 M 859.99999,2648 c 11.58533,24.7867 33.62666,47.5867 52.75333,66.7734 9.184,9.2133 18.25733,20.3866 29.91333,26.56 l -20.768,-21.72 -39.10666,-44.9467 -22.792,-26.6667 m 496.00001,5.3334 1.3333,1.3333 -1.3333,-1.3333 M 807.99999,2656 l -1.33334,17.3334 h 1.33334 V 2656 m 544.00001,1.3334 1.3333,1.3333 -1.3333,-1.3333 m -13.3334,13.3333 1.3334,1.3333 -1.3334,-1.3333 m 160.44,2.2267 0.4534,0.88 -0.4534,-0.88 m -672.43995,0.44 -6.66666,14.6666 h 1.33333 l 5.33333,-14.6666 m 641.33335,9.3333 6.6666,14.6667 H 1476 l -8,-14.6667 m -144,2.6667 1.3333,1.3333 -1.3333,-1.3333 m -482.66668,1.3333 -2.66667,9.3333 c 3.82134,-2.5466 5.13467,-5.32 2.66667,-9.3333 m 2.66667,8 -2.66667,6.6667 5.33333,-6.6667 h -2.66666 m 460.00001,8 1.3333,1.3333 -1.3333,-1.3333 M 1449.3333,2708 v 1.3334 L 1456,2712 v -1.3333 L 1449.3333,2708 m -37.3333,4 1.3333,1.3334 L 1412,2712 m -522.66668,9.3334 -1.33333,17.3333 h 1.33333 l 2.66667,-17.3333 h -2.66667 m 557.33328,5.3333 1.3334,1.3333 -1.3334,-1.3333 M 1440,2728 l 1.3333,1.3334 L 1440,2728 m -28.44,11.1067 0.88,0.4533 -0.88,-0.4533 M 903.99999,2752 918.66665,2741.3334 903.99999,2752 M 1416,2744 l 1.3333,1.3334 L 1416,2744 m -508.00001,5.3334 -1.33334,1.3333 1.33334,-1.3333 m 25.33333,2.6666 -1.33333,12 h 1.33333 l 2.66667,-12 h -2.66667 m 16,5.3334 -10.66667,16 c 3.3,-0.68 3.43334,-0.8 2.66667,-4 l 8,-12 m 423.10668,7.56 0.4533,0.88 -0.4533,-0.88 m -403.10668,1.7733 1.33333,1.3333 -1.33333,-1.3333 m 403.10668,2.2267 0.4533,0.88 -0.4533,-0.88 m -40.44,1.7733 c -0.2027,24.4133 -6.5214,41.9733 -29.3334,53.3467 -9.2813,4.6266 -30.4746,14.44 -34.6666,-0.013 -5.3,0.4134 -12.4814,0.48 -17.208,3.0934 -7.3787,4.08 -20.0094,25.1866 -30.792,10.24 l -41.3334,-4 c 0.5334,-8.2934 0.088,-18.72 -5.3333,-25.3334 v -1.3333 l 66.6667,-1.5733 26.6666,-3.76 c 3.1294,-8.9867 33.496,-19.48 42.6667,-18.6667 4.252,-7.4933 14.6747,-10.1467 22.6667,-12 m 40,1.3333 v 2.6667 h 2.6666 L 1372,2772 m -404.00001,1.3334 v 9.3333 h 1.33333 l 1.33333,-9.3333 h -2.66666 m 18.66666,0 2.66667,2.6666 v -2.6666 h -2.66667 m -1.33333,5.3333 1.33333,1.3333 -1.33333,-1.3333 m -1.33333,4 -6.66667,17.3333 4,-1.3333 2.66667,-16 m 325.33331,0 c 0.6387,6.3733 2.304,13.8667 8,17.3333 l -8,-17.3333 m -292,14.6667 1.3334,1.3333 -1.3334,-1.3333 m 5.3334,0 1.3333,5.3333 h 1.3333 l -2.6666,-5.3333 m 36,0 -1.3334,2.6666 1.3334,-2.6666 m -41.3334,2.6666 1.3334,1.3334 -1.3334,-1.3334 m 39.556,1.7734 0.888,0.4533 -0.888,-0.4533 m 259.5547,0.4533 0.4453,0.88 -0.4453,-0.88 m -52.444,0.44 v 6.6667 c 2.712,-2.36 2.712,-4.3067 0,-6.6667 m -209.3333,1.3333 -2.6667,8 -4,5.3334 h 1.3333 1.3334 L 1057.3333,2804 h -2.6666 m 41.3333,1.3334 1.3333,1.3333 -1.3333,-1.3333 m 50.6666,1.3333 -1.3333,2.6667 1.3333,-2.6667 m 96.444,0.8933 0.4454,0.88 -0.4454,-0.88 m -145.7773,0.44 1.3334,1.3334 -1.3334,-1.3334 m 106.6667,0 -9.3334,21.3334 H 1196 L 1204,2808 m 14.6666,0 v 8 H 1220 l -1.3334,-8 m -77.3333,1.3334 1.3333,1.3333 -1.3333,-1.3333 m -44,1.3333 V 2816 h 1.3334 l -1.3334,-5.3333 m 166.6667,0 v 10.6667 h 1.3333 L 1264,2810.6667 m -124,1.3333 1.3333,1.3334 L 1140,2812 m 104,0 v 10.6667 h 1.3333 L 1244,2812 m -25.3334,5.3334 v 9.3333 H 1220 l -1.3334,-9.3333 m -121.3333,1.3333 v 4 h 1.3334 l -1.3334,-4 m 41.3333,0 1.3334,1.3333 -1.3334,-1.3333 m -57.3333,5.3333 1.3334,1.3334 -1.3334,-1.3334 m 164,1.3334 L 1244,2828 l 1.3333,-2.6666 M 1080,2826.6667 1081.3333,2828 1080,2826.6667 m 21.3333,2.6667 2.6667,4 -2.6667,-4 M 989.33332,2972 l -1.33333,1.3334 1.33333,-1.3334 m 0,2.6667 -1.33333,1.3333 1.33333,-1.3333 m -0.88933,12.8933 0.44533,0.88 -0.44533,-0.88 m -0.444,4.44 v 12 h 1.33333 l -1.33333,-12 m 0,13.3334 -2.66667,29.3333 h 1.33333 c 2.42267,-8.12 4.68534,-21.3467 1.33334,-29.3333 m -48,33.3333 V 3040 l 8,-5.3333 -8,4 m 45.33333,-1.3333 -6.66667,68 h 1.33334 l 5.38533,-46.7867 -0.052,-21.2133 m -48,2.6666 c -23.94667,17.76 -60.25333,22.6534 -89.33333,22.6667 V 3064 c 21.99733,5.24 48.79733,-2.1466 69.33333,-10.04 5.288,-2.04 20.172,-7.5066 20,-13.96 m 405.33328,6.6667 -1.3333,4 1.3333,-4 M 1340,3052 l 1.3333,1.3334 L 1340,3052 m -525.33335,4 1.33334,1.3334 -1.33334,-1.3334 m 4,2.6667 1.33334,1.3333 -1.33334,-1.3333 m 515.99995,1.3333 -1.3333,4 1.3333,-4 m -499.99995,1.3334 v 1.3333 l 9.33334,1.3333 v -1.3333 l -9.33334,-1.3333 M 1212,3062.6667 V 3064 l 6.6666,1.3334 -6.6666,-2.6667 m 16.444,3.56 0.4453,0.88 -0.4453,-0.88 m 2.2226,-0.8933 4,2.6666 v -1.3333 l -4,-1.3333 m 101.7774,0.8933 0.4453,0.88 -0.4453,-0.88 m -9.7774,16.44 -1.3333,4 h 1.3333 v -4 M 1320,3088 l -1.3334,2.6667 L 1320,3088 m -569.33334,2.6667 2.66666,8 h 1.33334 l -4,-8 m 565.33334,4 -2.6667,5.3333 2.6667,-5.3333 m -560.88934,6.2267 0.44533,0.88 -0.44533,-0.88 m 556.88934,0.44 -4,8 4,-8 m -555.55601,3.56 0.44533,0.88 -0.44533,-0.88 m 222.22266,1.7733 v 6.6667 l 2.66667,-6.6667 h -2.66667 m -220.88933,2.2267 0.44534,0.88 -0.44534,-0.88 m 549.33328,2.6666 0.4454,0.88 -0.4454,-0.88 m -329.77728,3.1067 1.33333,1.3333 -1.33333,-1.3333 M 759.99999,3116 l 1.33333,1.3334 -1.33333,-1.3334 m 544.00001,0 -8,16 8,-16 m -326.66668,1.3334 -5.33333,54.6666 c 3.908,-3.36 3.63733,-9.8266 3.94666,-14.7866 0.732,-11.7734 6.03867,-28.8 1.38667,-39.88 m -215.556,2.2266 0.44534,0.88 -0.44534,-0.88 m 0.88934,3.1067 c 9.30533,39.2933 18.79733,74.32 0.92133,113.3333 -12.996,28.36 -37.228,50 -50.25467,78.6667 9.59867,-3 15.104,-18.64 20.444,-26.6667 16.46267,-24.7333 39.67733,-47.52 42.22267,-78.6666 h 1.33333 l -4,57.3333 h 1.33333 c 0.74934,-14.6267 5.536,-29.24 6.548,-44 1.41867,-20.7067 -2.56266,-42.4133 -6.54666,-62.6667 -2.40267,-12.2133 -4.32,-27.1733 -12.00133,-37.3333 m 530.66664,10.6667 -9.3333,16 v 1.3333 l 12,-17.3333 h -2.6667 m -9.7773,19.1066 0.888,0.4534 -0.888,-0.4534 m -2.2227,2.2267 -1.3333,4 1.3333,-4 m -4,8 -6.6667,16 H 1272 l 5.3333,-16 m -305.33331,10.6667 V 3184 h 1.33333 l -1.33333,-10.6666 m 294.66661,13.3333 c -14.9813,20.7067 -22.9173,49.4267 -24,74.6667 h 4 L 1260,3206.6667 h 1.3333 c 0,32.2133 12.008,57.08 28.768,84 5.1227,8.2267 10.136,22.3467 20.5653,24 l -37.2813,-64 L 1264,3209.3334 V 3208 c 4.092,-3.5733 4.4573,-16.3333 2.6666,-21.3333 m -295.99995,4 V 3196 h 1.33334 l -1.33334,-5.3333 m -1.33333,10.6667 V 3208 h 1.33333 l -1.33333,-6.6666 M 967.99999,3216 v 9.3334 h 1.33333 L 967.99999,3216 m 94.66671,9.3334 -1.3334,2.6666 1.3334,-2.6666 m -96.00005,5.3333 1.33334,1.3333 -1.33334,-1.3333 m 0,2.6667 1.33334,1.3333 -1.33334,-1.3333 m 0,2.6666 1.33334,1.3334 -1.33334,-1.3334 m 93.33335,1.3334 -1.3333,4 1.3333,-4 m 0,5.3333 1.3333,1.3333 -1.3333,-1.3333 m -94.66668,1.3333 1.33333,1.3334 -1.33333,-1.3334 m 93.77738,2.2267 0.4453,0.88 -0.4453,-0.88 m -93.77738,1.7733 1.33333,1.3334 -1.33333,-1.3334 m 93.33338,2.6667 c -3.0854,14.9067 -1.192,29.0933 -1.0387,44.0133 0.069,6.7334 0.6533,15.7734 6.372,19.9867 L 1058.6667,3276 v -25.3333 m -93.33338,1.3333 1.33333,1.3334 -1.33333,-1.3334 m -1.33333,2.6667 -6.66667,60 4.78667,-16 4.54666,-44 h -2.66666 m -192,14.6667 1.33333,1.3333 z"
       style="fill:#382d2f;stroke:none;stroke-width:1.33333" />
  </g>
</svg>
